<svg width="24.000000" height="23.000000" viewBox="0 0 24 23" fill="none" xmlns="http://www.w3.org/2000/svg" xmlns:xlink="http://www.w3.org/1999/xlink">
	<desc>
			Created with Pixso.
	</desc>
	<defs/>
	<rect id="Frame 233" width="24.000000" height="23.000000" fill="#FFFFFF" fill-opacity="0"/>
	<path id="Vector" d="M4.61 8.09C4.39 8.23 4.29 8.44 4.29 8.74C4.29 9.05 4.39 9.26 4.61 9.4C4.75 9.49 4.84 9.49 10.72 9.49C16.6 9.49 16.69 9.49 16.84 9.4C17.05 9.26 17.16 9.05 17.16 8.74C17.16 8.44 17.05 8.23 16.84 8.09C16.69 7.99 16.6 7.99 10.72 7.99C4.84 7.99 4.75 7.99 4.61 8.09Z" fill="#FFFFFF" fill-opacity="1.000000" fill-rule="nonzero"/>
	<path id="Vector" d="M4.61 11.09C4.39 11.23 4.29 11.44 4.29 11.74C4.29 12.05 4.39 12.26 4.61 12.4C4.75 12.49 4.84 12.49 7.86 12.49C10.88 12.49 10.97 12.49 11.12 12.4C11.33 12.26 11.44 12.05 11.44 11.74C11.44 11.44 11.33 11.23 11.12 11.09C10.97 11 10.88 10.99 7.86 10.99C4.84 10.99 4.75 11 4.61 11.09Z" fill="#FFFFFF" fill-opacity="1.000000" fill-rule="nonzero"/>
	<path id="Vector" d="M1.46 2.08C0.81 2.3 0.26 2.9 0.07 3.58C0 3.81 0 4.53 0 10.25C0 16.41 0 16.67 0.08 16.94C0.29 17.63 0.85 18.22 1.51 18.42C1.71 18.48 2 18.49 3.02 18.49L4.29 18.49L4.29 20.5C4.29 22.41 4.29 22.51 4.37 22.66C4.5 22.88 4.71 23 4.99 23C5.12 23 5.27 22.97 5.33 22.94C5.38 22.91 6.61 21.9 8.04 20.69L10.67 18.49L15.18 18.49C19.49 18.49 19.71 18.49 19.97 18.41C20.62 18.19 21.18 17.6 21.38 16.9C21.44 16.68 21.45 15.95 21.45 10.24C21.45 4.53 21.44 3.81 21.38 3.58C21.18 2.89 20.62 2.3 19.97 2.08C19.7 2 19.41 1.99 10.71 2C2.11 2 1.7 2 1.46 2.08ZM19.41 3.54C19.63 3.59 19.79 3.71 19.91 3.92C20 4.08 20 4.16 20 10.24C20 16.32 20 16.41 19.91 16.57C19.79 16.77 19.63 16.9 19.41 16.95C19.31 16.98 17.25 16.99 14.67 16.99L10.11 16.99L9.95 17.11C9.87 17.17 8.89 17.98 7.78 18.91C6.67 19.84 5.75 20.6 5.74 20.6C5.72 20.6 5.72 19.9 5.72 19.04C5.72 17.58 5.71 17.48 5.63 17.34C5.44 17.01 5.47 17.02 3.64 16.99C2.07 16.97 1.97 16.97 1.83 16.87C1.61 16.74 1.48 16.52 1.45 16.23C1.43 16.09 1.42 13.3 1.43 10.03C1.45 4.18 1.45 4.07 1.54 3.92C1.65 3.72 1.81 3.59 2.01 3.54C2.23 3.49 19.19 3.48 19.41 3.54Z" fill="#FFFFFF" fill-opacity="1.000000" fill-rule="nonzero"/>
	<path id="Vector" d="M24 3.5C24 5.43 22.43 7 20.5 7C18.56 7 17 5.43 17 3.5C17 1.56 18.56 0 20.5 0C22.43 0 24 1.56 24 3.5Z" fill="#DA1414" fill-opacity="1.000000" fill-rule="evenodd"/>
</svg>
