<svg width="18.000000" height="19.000000" viewBox="0 0 18 19" fill="none" xmlns="http://www.w3.org/2000/svg" xmlns:xlink="http://www.w3.org/1999/xlink">
	<desc>
			Created with Pixso.
	</desc>
	<defs/>
	<path id="Vector" d="M14.43 0.01L11.86 0.03L11.69 0.15C11.29 0.43 11.21 1.06 11.53 1.44C11.79 1.76 11.77 1.75 13.51 1.75L15.06 1.75L12.02 4.94C10.35 6.7 8.95 8.19 8.92 8.27C8.83 8.44 8.83 8.83 8.91 9.02C8.98 9.18 9.2 9.41 9.35 9.47C9.49 9.53 9.86 9.53 10.01 9.47C10.08 9.45 11.48 8 13.19 6.21L16.25 3L16.25 4.63C16.25 6.37 16.26 6.43 16.47 6.66C16.64 6.86 16.85 6.94 17.14 6.92C17.37 6.91 17.44 6.88 17.57 6.77C17.65 6.7 17.76 6.59 17.8 6.53C17.89 6.41 17.89 6.36 17.91 3.58C17.92 2.03 17.92 0.7 17.9 0.62C17.82 0.29 17.51 0.03 17.18 0C17.08 -0.01 15.84 0 14.43 0.01Z" fill="#FFFFFF" fill-opacity="1.000000" fill-rule="nonzero"/>
	<path id="Vector" d="M2.26 0.1C1.09 0.42 0.17 1.39 -0.13 2.62C-0.21 2.95 -0.21 3.07 -0.21 9.51C-0.21 15.93 -0.21 16.09 -0.13 16.41C0.16 17.58 1.02 18.53 2.14 18.9L2.44 19L8.85 19L15.26 19L15.56 18.9C16.68 18.53 17.54 17.58 17.83 16.41C17.91 16.09 17.91 15.93 17.91 13.09C17.91 10.21 17.91 10.1 17.83 9.94C17.53 9.32 16.66 9.31 16.34 9.93L16.25 10.12L16.25 12.9C16.25 15.94 16.25 15.95 16.02 16.39C15.9 16.64 15.6 16.94 15.37 17.06C14.95 17.29 15.2 17.28 8.85 17.28C3.69 17.28 2.93 17.27 2.72 17.21C2.1 17.04 1.68 16.59 1.51 15.93C1.42 15.57 1.42 3.46 1.51 3.1C1.68 2.43 2.1 1.99 2.72 1.82C2.93 1.76 3.36 1.75 5.62 1.75L8.27 1.75L8.45 1.65C9.04 1.33 9.04 0.41 8.44 0.1C8.29 0.02 8.19 0.01 5.43 0.02C2.72 0.02 2.55 0.02 2.26 0.1Z" fill="#FFFFFF" fill-opacity="1.000000" fill-rule="nonzero"/>
</svg>
