<svg width="18.000000" height="18.000000" viewBox="0 0 18 18" fill="none" xmlns="http://www.w3.org/2000/svg" xmlns:xlink="http://www.w3.org/1999/xlink">
	<desc>
			Created with Pixso.
	</desc>
	<defs/>
	<path id="Vector" d="M7.87 0.04C6.5 0.21 5.18 0.7 4.03 1.46C2.26 2.64 0.97 4.36 0.37 6.37C0.22 6.83 0.08 7.54 0.03 8.01C-0.02 8.45 -0.02 9.53 0.03 9.97C0.41 13.53 2.93 16.58 6.37 17.62C6.84 17.76 7.54 17.9 8.02 17.96C8.46 18 9.53 18 9.97 17.96C12.05 17.74 13.98 16.79 15.47 15.26C16.48 14.21 17.2 13 17.62 11.61C17.88 10.76 18 9.97 18 8.99C18 8.26 17.96 7.85 17.83 7.22C17.2 3.98 14.79 1.32 11.62 0.36C11.15 0.22 10.45 0.08 9.97 0.03C9.51 -0.02 8.32 -0.01 7.87 0.04ZM11.49 4.49L11.49 5.51L10.77 5.51C9.66 5.51 9.68 5.49 9.67 6.54L9.66 7.27L10.57 7.27L11.49 7.27L11.47 7.36C11.45 7.49 11.28 9.18 11.28 9.27C11.28 9.34 11.26 9.34 10.47 9.34L9.66 9.34L9.66 12.3L9.66 15.25L8.44 15.24L7.22 15.23L7.21 12.29L7.2 9.34L6.62 9.34L6.04 9.34L6.04 8.31L6.04 7.27L6.62 7.27L7.19 7.27L7.21 6.4C7.23 5.41 7.26 5.18 7.48 4.72C7.7 4.27 8.01 3.95 8.41 3.75C8.87 3.52 9.15 3.48 10.43 3.48L11.49 3.47L11.49 4.49Z" fill="#374883" fill-opacity="1.000000" fill-rule="nonzero"/>
</svg>
