<svg width="21.000000" height="23.000000" viewBox="0 0 21 23" fill="none" xmlns="http://www.w3.org/2000/svg" xmlns:xlink="http://www.w3.org/1999/xlink">
	<desc>
			Created with Pixso.
	</desc>
	<defs>
		<clipPath id="clip1213_503">
			<rect id="fi-rr-signal-alt-2" width="21.000000" height="22.909090" fill="white" fill-opacity="0"/>
		</clipPath>
	</defs>
	<rect id="fi-rr-signal-alt-2" width="21.000000" height="22.909090" fill="#FFFFFF" fill-opacity="0"/>
	<g clip-path="url(#clip1213_503)">
		<path id="Vector" d="M10.5 5.72C9.8 5.72 9.13 6.02 8.64 6.56C8.15 7.1 7.87 7.83 7.87 8.59L7.87 20.04C7.87 20.8 8.15 21.53 8.64 22.07C9.13 22.6 9.8 22.9 10.5 22.9C11.19 22.9 11.86 22.6 12.35 22.07C12.84 21.53 13.12 20.8 13.12 20.04L13.12 8.59C13.12 7.83 12.84 7.1 12.35 6.56C11.86 6.02 11.19 5.72 10.5 5.72Z" fill="#000000" fill-opacity="1.000000" fill-rule="nonzero"/>
		<path id="Vector" d="M18.37 0C17.67 0 17.01 0.3 16.51 0.83C16.02 1.37 15.75 2.1 15.75 2.86L15.75 20.04C15.75 20.8 16.02 21.53 16.51 22.07C17.01 22.6 17.67 22.9 18.37 22.9C19.07 22.9 19.73 22.6 20.23 22.07C20.72 21.53 21 20.8 21 20.04L21 2.86C21 2.1 20.72 1.37 20.23 0.83C19.73 0.3 19.07 0 18.37 0L18.37 0Z" fill="#000000" fill-opacity="1.000000" fill-rule="nonzero"/>
		<path id="Vector" d="M2.62 11.45C1.92 11.45 1.26 11.75 0.76 12.29C0.27 12.83 0 13.55 0 14.31L0 20.04C0 20.8 0.27 21.53 0.76 22.07C1.26 22.6 1.92 22.9 2.62 22.9C3.32 22.9 3.98 22.6 4.48 22.07C4.97 21.53 5.25 20.8 5.25 20.04L5.25 14.31C5.25 13.55 4.97 12.83 4.48 12.29C3.98 11.75 3.32 11.45 2.62 11.45Z" fill="#000000" fill-opacity="1.000000" fill-rule="nonzero"/>
	</g>
</svg>
