<svg width="100.000000" height="100.000000" viewBox="0 0 100 100" fill="none" xmlns="http://www.w3.org/2000/svg" xmlns:xlink="http://www.w3.org/1999/xlink">
	<desc>
			Created with Pixso.
	</desc>
	<defs>
		<clipPath id="clip1006_1210">
			<rect id="Frame 110" rx="44.000000" width="88.000000" height="88.000000" transform="translate(6.000000 6.000000)" fill="white" fill-opacity="0"/>
		</clipPath>
		<clipPath id="clip1006_1209">
			<rect id="Frame 111" rx="49.000000" width="98.000000" height="98.000000" transform="translate(1.000000 1.000000)" fill="white" fill-opacity="0"/>
		</clipPath>
	</defs>
	<g clip-path="url(#clip1006_1209)">
		<g clip-path="url(#clip1006_1210)">
			<path id="Vector" d="M38.19 25.17C36.6 25.54 35.22 26.22 34.06 27.18C33.72 27.47 33.4 27.68 33.34 27.65C33.31 27.62 32.87 27.33 32.37 27.01C27.19 23.59 20.01 25.84 17.8 31.59C17.01 33.64 16.75 36.52 17.25 37.62C18.21 39.68 20.99 40.23 22.64 38.71C23.34 38.06 23.69 37.24 23.81 35.93C23.94 34.52 24.28 33.68 24.96 33.04C26.72 31.42 29.51 32.38 30.16 34.83C30.33 35.44 30.35 37.8 30.35 50.33C30.35 66.7 30.3 65.75 31.21 66.8C32.2 67.97 34 68.29 35.39 67.54C36.13 67.13 36.56 66.67 36.92 65.85C37.14 65.38 37.15 64.34 37.22 49.86C37.27 38.15 37.32 34.26 37.45 33.91C37.66 33.29 38.44 32.42 39.06 32.1C39.43 31.9 39.82 31.84 40.47 31.84C41.76 31.84 42.36 32.06 43.12 32.82C44.28 33.98 44.21 32.88 44.21 49.83C44.21 59.98 44.25 64.82 44.36 65.28C44.56 66.22 45.17 67.05 46.03 67.53C46.62 67.87 46.87 67.92 47.65 67.92C48.76 67.92 49.58 67.57 50.22 66.8C51.13 65.75 51.08 66.7 51.08 50.25C51.08 40.08 51.12 35.16 51.22 34.64C51.55 32.86 52.62 31.84 54.18 31.83C55.76 31.83 56.91 32.66 57.47 34.24C57.57 34.51 57.63 38.74 57.69 47.59L57.75 60.55L58.1 61.52C58.52 62.66 59.4 63.98 60.25 64.78C61.99 66.4 64.73 67.68 67.76 68.27L68.57 68.42L68.57 70.66C68.57 73.01 68.62 73.27 69.19 74.05C69.88 74.97 71.5 75.29 72.56 74.69C72.86 74.54 75.29 72.49 77.97 70.15C83.31 65.47 83.32 65.46 83.34 64.07C83.34 63.25 83.05 62.55 82.53 62.09C81.65 61.29 72.53 54.91 72.1 54.8C71.08 54.51 70.01 54.77 69.35 55.44C68.67 56.16 68.57 56.62 68.57 59.08C68.57 60.35 68.52 61.39 68.46 61.39C68.27 61.39 66.7 60.84 66.3 60.65C65.55 60.26 64.82 59.67 64.69 59.33C64.6 59.11 64.54 54.68 64.51 45.78C64.49 33.69 64.46 32.5 64.25 31.79C63.39 28.77 60.89 26.48 57.34 25.43C55.91 25.01 53.81 24.87 52.47 25.12C50.78 25.41 48.96 26.26 47.84 27.27L47.39 27.68L46.56 27.06C45.57 26.32 44.5 25.78 43.24 25.37C42.08 25 39.37 24.9 38.19 25.17Z" fill="#000000" fill-opacity="1.000000" fill-rule="nonzero"/>
		</g>
		<rect id="Frame 110" rx="44.000000" width="88.000000" height="88.000000" transform="translate(6.000000 6.000000)" stroke="#000000" stroke-opacity="1.000000" stroke-width="2.000000" stroke-dasharray="0.5 3"/>
	</g>
	<rect id="Frame 111" rx="49.000000" width="98.000000" height="98.000000" transform="translate(1.000000 1.000000)" stroke="#000000" stroke-opacity="1.000000" stroke-width="2.000000" stroke-dasharray="5 5"/>
</svg>
