<svg width="20.000000" height="20.000000" viewBox="0 0 20 20" fill="none" xmlns="http://www.w3.org/2000/svg" xmlns:xlink="http://www.w3.org/1999/xlink">
	<desc>
			Created with Pixso.
	</desc>
	<defs/>
	<path id="Vector" d="M10.88 0.67C9.35 2.19 7.94 3.87 6.89 5.45C6.25 6.42 5.73 7.34 5.73 7.51C5.73 7.68 5.89 7.86 6.27 8.1C6.62 8.32 6.65 8.34 6.87 8.34C7.09 8.33 7.14 8.32 7.42 8.14C8.15 7.67 8.41 7.58 9.06 7.55C9.6 7.52 9.84 7.6 10.13 7.89C10.55 8.32 10.6 8.96 10.24 9.47C10.1 9.69 10.08 9.89 10.18 10.05C10.22 10.11 10.38 10.22 10.55 10.3C10.71 10.39 10.98 10.54 11.14 10.65C11.41 10.82 11.46 10.84 11.67 10.84C11.89 10.83 11.93 10.82 12.21 10.63C12.85 10.2 13.4 10.02 14.04 10.05C14.47 10.06 14.68 10.15 14.94 10.43C15.26 10.77 15.35 11.24 15.19 11.67C15.03 12.1 14.65 12.39 14.16 12.46C13.87 12.5 13.7 12.57 13.47 12.73C13.38 12.79 13.18 12.91 13.02 12.99C12.87 13.07 12.7 13.18 12.66 13.23C12.55 13.37 12.56 13.59 12.69 13.77C13.09 14.36 13.08 14.95 12.65 15.42C12.35 15.75 11.92 15.86 11.32 15.77C11 15.72 10.91 15.72 10.81 15.76C10.62 15.84 10.53 15.98 10.5 16.26C10.46 16.62 10.34 16.89 10.15 17.09C9.94 17.31 9.73 17.41 9.32 17.48C9.05 17.52 8.95 17.57 8.65 17.75C8.47 17.87 8.22 18.01 8.1 18.06C7.72 18.21 7.58 18.41 7.67 18.69C7.73 18.85 7.85 18.94 8.42 19.22C9.06 19.54 9.62 19.73 10.48 19.91C10.95 20.01 12.25 20.03 12.79 19.94C14.49 19.69 15.89 18.99 17.06 17.81C18.21 16.66 18.9 15.29 19.18 13.63C19.26 13.12 19.28 12.1 19.21 11.56C18.92 9.18 17.58 6.46 15.26 3.55C14.46 2.55 13.94 1.97 12.92 0.94L11.98 0L11.77 0L11.56 0L10.88 0.67Z" fill="#000000" fill-opacity="1.000000" fill-rule="nonzero"/>
	<path id="Vector" d="M-0.49 8.37C-0.72 8.49 -0.79 8.85 -0.61 9.03C-0.51 9.14 -0.49 9.15 -0.05 9.22C0.14 9.25 0.29 9.3 0.44 9.4C0.56 9.47 0.76 9.59 0.88 9.67C1.27 9.9 1.49 9.97 1.97 9.99C2.64 10.01 2.95 9.92 3.6 9.5C3.96 9.26 4.13 9.21 4.5 9.2C4.84 9.2 5.01 9.26 5.41 9.51C6.06 9.94 6.31 10.01 6.99 9.99C7.54 9.97 7.74 9.9 8.21 9.6C8.64 9.31 8.86 9.22 9.17 9.19C9.41 9.17 9.46 9.15 9.58 9.04C9.68 8.94 9.7 8.88 9.7 8.75C9.7 8.61 9.68 8.56 9.56 8.45L9.42 8.31L9.09 8.33C8.64 8.36 8.38 8.45 7.85 8.78C7.37 9.09 7.22 9.14 6.86 9.14C6.56 9.13 6.29 9.04 5.94 8.8C5.42 8.45 5.04 8.32 4.5 8.32C3.95 8.32 3.59 8.44 3.02 8.81C2.65 9.06 2.43 9.14 2.09 9.14C1.76 9.13 1.5 9.05 1.15 8.8C0.81 8.57 0.54 8.44 0.26 8.38C-0.03 8.31 -0.38 8.3 -0.49 8.37Z" fill="#000000" fill-opacity="1.000000" fill-rule="nonzero"/>
	<path id="Vector" d="M-0.49 10.87C-0.72 10.99 -0.79 11.35 -0.61 11.53C-0.51 11.64 -0.49 11.65 -0.05 11.72C0.14 11.75 0.29 11.8 0.44 11.9C0.56 11.97 0.76 12.09 0.88 12.17C1.33 12.44 1.47 12.48 2.1 12.48C2.73 12.48 2.88 12.44 3.31 12.17C3.43 12.1 3.62 11.98 3.75 11.9C3.91 11.8 4.05 11.75 4.26 11.72C4.69 11.65 4.71 11.64 4.81 11.53C4.88 11.46 4.91 11.39 4.91 11.25C4.9 10.96 4.74 10.82 4.39 10.82C3.96 10.82 3.55 10.97 3.02 11.32C2.65 11.56 2.43 11.64 2.09 11.64C1.76 11.64 1.5 11.55 1.15 11.3C0.81 11.07 0.54 10.94 0.26 10.88C-0.03 10.81 -0.38 10.8 -0.49 10.87Z" fill="#000000" fill-opacity="1.000000" fill-rule="nonzero"/>
	<path id="Vector" d="M8.73 10.87C8.43 10.94 8.29 11.01 7.85 11.28C7.4 11.57 7.35 11.59 6.98 11.64C6.76 11.67 6.66 11.7 6.59 11.76C6.41 11.94 6.41 12.25 6.61 12.42C6.71 12.5 6.74 12.51 7.08 12.49C7.53 12.46 7.78 12.38 8.21 12.1C8.71 11.77 8.89 11.7 9.27 11.7C9.57 11.7 9.63 11.71 9.86 11.83C10 11.89 10.23 12.03 10.38 12.13C10.8 12.4 11.01 12.47 11.53 12.49C12.2 12.52 12.49 12.43 13.12 12.02C13.47 11.8 13.62 11.74 13.93 11.7C14.24 11.66 14.37 11.58 14.44 11.41C14.49 11.3 14.49 11.24 14.46 11.12C14.37 10.83 14.04 10.75 13.49 10.88C13.2 10.94 12.97 11.06 12.57 11.32C12.16 11.59 11.95 11.66 11.57 11.63C11.23 11.61 11.1 11.56 10.58 11.22C10.13 10.93 9.89 10.85 9.37 10.83C9.1 10.83 8.86 10.84 8.73 10.87Z" fill="#000000" fill-opacity="1.000000" fill-rule="nonzero"/>
	<path id="Vector" d="M-0.49 13.37C-0.72 13.49 -0.79 13.85 -0.61 14.04C-0.51 14.14 -0.49 14.15 -0.05 14.22C0.14 14.25 0.29 14.3 0.44 14.4C0.56 14.47 0.76 14.59 0.88 14.67C1.23 14.89 1.5 14.97 1.88 14.99C2.26 15.01 2.38 14.97 2.47 14.8C2.65 14.46 2.4 14.14 1.98 14.14C1.77 14.14 1.45 14.01 1.15 13.8C0.81 13.57 0.54 13.45 0.26 13.38C-0.03 13.31 -0.38 13.3 -0.49 13.37Z" fill="#000000" fill-opacity="1.000000" fill-rule="nonzero"/>
	<path id="Vector" d="M4.26 13.39C4.1 13.49 4.03 13.7 4.09 13.88C4.15 14.08 4.24 14.14 4.6 14.2C5 14.26 5.05 14.28 5.42 14.53C6.05 14.94 6.31 15.02 6.99 14.99C7.54 14.97 7.74 14.91 8.21 14.6C8.72 14.27 8.89 14.2 9.27 14.2C9.65 14.21 9.87 14.28 10.25 14.52C10.82 14.88 11.18 15 11.65 15C11.96 15 12.06 14.95 12.15 14.78C12.31 14.47 12.06 14.14 11.66 14.14C11.43 14.14 11.15 14.04 10.81 13.83C10.12 13.41 9.74 13.29 9.1 13.33C8.64 13.36 8.39 13.45 7.85 13.78C7.37 14.09 7.22 14.14 6.86 14.14C6.56 14.14 6.29 14.04 5.94 13.8C5.6 13.57 5.34 13.45 5.05 13.38C4.71 13.3 4.41 13.3 4.26 13.39Z" fill="#000000" fill-opacity="1.000000" fill-rule="nonzero"/>
	<path id="Vector" d="M-0.49 15.87C-0.72 15.99 -0.79 16.35 -0.61 16.54C-0.51 16.65 -0.49 16.65 -0.05 16.72C0.14 16.75 0.29 16.81 0.44 16.9C0.56 16.97 0.76 17.09 0.88 17.17C1.27 17.41 1.49 17.47 1.97 17.49C2.64 17.52 2.95 17.42 3.6 17C3.96 16.76 4.13 16.71 4.5 16.7C4.84 16.7 5.01 16.76 5.41 17.02C6.06 17.45 6.31 17.52 6.99 17.49C7.54 17.47 7.74 17.41 8.21 17.1C8.64 16.82 8.86 16.73 9.17 16.7C9.41 16.67 9.46 16.65 9.58 16.54C9.68 16.44 9.7 16.38 9.7 16.25C9.7 16.11 9.68 16.06 9.56 15.95L9.42 15.81L9.09 15.83C8.64 15.86 8.38 15.95 7.85 16.29C7.37 16.59 7.22 16.64 6.86 16.64C6.56 16.64 6.29 16.54 5.94 16.3C5.42 15.95 5.04 15.82 4.5 15.82C3.95 15.82 3.59 15.95 3.02 16.32C2.65 16.56 2.43 16.64 2.09 16.64C1.76 16.64 1.5 16.55 1.15 16.3C0.81 16.07 0.54 15.95 0.26 15.88C-0.03 15.81 -0.38 15.81 -0.49 15.87Z" fill="#000000" fill-opacity="1.000000" fill-rule="nonzero"/>
</svg>
