<svg width="19.000000" height="15.000000" viewBox="0 0 19 15" fill="none" xmlns="http://www.w3.org/2000/svg" xmlns:xlink="http://www.w3.org/1999/xlink">
	<desc>
			Created with Pixso.
	</desc>
	<defs/>
	<path id="Vector" d="M13.12 -0.65C12.28 -0.64 11.45 -0.41 10.72 0C10 0.41 9.4 0.99 9 1.69C8.59 0.99 7.99 0.41 7.26 0C6.54 -0.41 5.71 -0.64 4.87 -0.65C3.52 -0.59 2.25 -0.04 1.34 0.9C0.43 1.84 -0.06 3.07 0 4.35C0 7.57 3.58 11.08 6.59 13.47C7.27 14 8.12 14.3 9 14.3C9.87 14.3 10.72 14 11.39 13.47C14.41 11.08 18 7.57 18 4.35C18.05 3.07 17.56 1.84 16.65 0.9C15.73 -0.04 14.47 -0.59 13.12 -0.65ZM10.43 12.39C10.03 12.71 9.52 12.88 9 12.88C8.47 12.88 7.96 12.71 7.56 12.39C3.7 9.33 1.5 6.4 1.5 4.35C1.44 3.45 1.77 2.57 2.4 1.9C3.03 1.23 3.92 0.82 4.87 0.77C5.82 0.82 6.71 1.23 7.34 1.9C7.97 2.57 8.3 3.45 8.25 4.35C8.25 4.53 8.32 4.71 8.46 4.85C8.61 4.98 8.8 5.05 9 5.05C9.19 5.05 9.38 4.98 9.53 4.85C9.67 4.71 9.75 4.53 9.75 4.35C9.69 3.45 10.02 2.57 10.65 1.9C11.28 1.23 12.17 0.82 13.12 0.77C14.07 0.82 14.96 1.23 15.59 1.9C16.22 2.57 16.55 3.45 16.5 4.35C16.5 6.4 14.28 9.33 10.43 12.38L10.43 12.39Z" fill="#50544F" fill-opacity="1.000000" fill-rule="nonzero"/>
</svg>
