<svg width="7.627441" height="11.000000" viewBox="0 0 7.62744 11" fill="none" xmlns="http://www.w3.org/2000/svg" xmlns:xlink="http://www.w3.org/1999/xlink">
	<desc>
			Created with Pixso.
	</desc>
	<defs/>
	<path id="Vector" d="M3.20166 0.039917C2.37207 0.18602 1.69971 0.527649 1.12354 1.10133C0.623047 1.59766 0.294434 2.16704 0.111816 2.85675C0.0258789 3.18333 0 3.39819 0 3.7914C0.00195312 4.11369 0.00878906 4.18674 0.0625 4.4102C0.365234 5.69937 1.51709 7.82649 3.25098 10.3017C3.70654 10.9506 3.74707 11 3.81396 11C3.88037 11 3.92139 10.9506 4.37695 10.3017C6.11084 7.82649 7.26221 5.69937 7.56543 4.4102C7.61914 4.18674 7.62549 4.11369 7.62744 3.7914C7.62744 3.39819 7.60156 3.18333 7.51562 2.85675C7.33301 2.16919 7.00244 1.59766 6.50391 1.10133C5.91748 0.516907 5.20801 0.162384 4.36816 0.0313263C4.08008 -0.0137939 3.48486 -0.00950623 3.20166 0.039917ZM4.13379 2.50223C4.57666 2.60751 4.96777 2.97707 5.10938 3.42613C5.17188 3.62595 5.17578 4.01056 5.11572 4.18889C4.95898 4.65085 4.61523 4.99248 4.16846 5.12569C3.99219 5.1794 3.63525 5.1794 3.45947 5.12569C3.22705 5.05693 3.04248 4.94305 2.85742 4.75827C2.52881 4.42953 2.39355 3.97618 2.49219 3.53571C2.60205 3.04153 3.0083 2.61826 3.48486 2.50438C3.65039 2.46355 3.96436 2.46355 4.13379 2.50223Z" fill="#151515" fill-opacity="1.000000" fill-rule="nonzero"/>
</svg>
