<svg width="15.000000" height="15.000000" viewBox="0 0 15 15" fill="none" xmlns="http://www.w3.org/2000/svg" xmlns:xlink="http://www.w3.org/1999/xlink">
	<desc>
			Created with Pixso.
	</desc>
	<defs/>
	<path id="Vector" d="M11.5 0.01L9.48 0.03L9.34 0.12C9.03 0.34 8.96 0.83 9.21 1.13C9.42 1.39 9.41 1.38 10.78 1.38L12 1.38L9.6 3.9C8.28 5.29 7.18 6.47 7.15 6.53C7.09 6.66 7.08 6.97 7.15 7.12C7.2 7.25 7.37 7.43 7.49 7.47C7.61 7.52 7.9 7.52 8.02 7.47C8.07 7.46 9.18 6.32 10.53 4.9L12.94 2.37L12.94 3.65C12.94 5.03 12.95 5.08 13.11 5.26C13.25 5.41 13.41 5.47 13.65 5.46C13.83 5.45 13.88 5.43 13.98 5.35C14.05 5.29 14.13 5.2 14.17 5.15C14.24 5.06 14.24 5.02 14.25 2.83C14.26 1.6 14.26 0.55 14.24 0.49C14.18 0.23 13.94 0.02 13.67 0C13.6 -0.01 12.62 0 11.5 0.01Z" fill="#50544F" fill-opacity="1.000000" fill-rule="nonzero"/>
	<path id="Vector" d="M1.9 0.08C0.97 0.33 0.25 1.09 0.01 2.06C-0.05 2.33 -0.05 2.43 -0.05 7.51C-0.05 12.57 -0.05 12.7 0.01 12.96C0.24 13.88 0.92 14.63 1.8 14.92L2.04 15L7.1 15L12.16 15L12.4 14.92C13.28 14.63 13.96 13.88 14.19 12.96C14.25 12.7 14.25 12.58 14.25 10.33C14.25 8.06 14.25 7.97 14.19 7.85C13.95 7.36 13.26 7.35 13.02 7.84L12.94 7.99L12.94 10.19C12.94 12.58 12.94 12.59 12.76 12.94C12.66 13.13 12.43 13.37 12.25 13.47C11.91 13.65 12.11 13.64 7.1 13.64C3.03 13.64 2.43 13.63 2.26 13.59C1.77 13.45 1.44 13.1 1.31 12.58C1.23 12.29 1.23 2.73 1.31 2.44C1.44 1.92 1.77 1.57 2.26 1.43C2.42 1.39 2.77 1.38 4.55 1.38L6.64 1.38L6.78 1.3C7.25 1.05 7.25 0.32 6.78 0.08C6.66 0.01 6.58 0.01 4.4 0.01C2.26 0.01 2.12 0.02 1.9 0.08Z" fill="#50544F" fill-opacity="1.000000" fill-rule="nonzero"/>
</svg>
