<svg width="28.000000" height="27.000000" viewBox="0 0 28 27" fill="none" xmlns="http://www.w3.org/2000/svg" xmlns:xlink="http://www.w3.org/1999/xlink">
	<desc>
			Created with Pixso.
	</desc>
	<defs/>
	<path id="Vector" d="M16.55 0.07C15.3 0.38 14.21 1.39 13.79 2.64L13.65 3.05L7.14 3.05C-0.12 3.05 0.4 3.02 0.13 3.41C0.04 3.56 0 3.67 0 3.88C0 4.22 0.1 4.42 0.36 4.62L0.55 4.76L7.11 4.79L13.67 4.82L13.76 5.11C14.14 6.31 15.15 7.31 16.4 7.7C16.74 7.81 16.91 7.82 17.56 7.82C18.28 7.82 18.35 7.81 18.79 7.65C19.45 7.42 19.79 7.2 20.31 6.69C20.81 6.18 21.1 5.73 21.27 5.17L21.39 4.79L23.93 4.78C26.41 4.76 26.47 4.76 26.62 4.65C27.13 4.27 27.15 3.51 26.64 3.18C26.51 3.08 26.32 3.08 23.95 3.05L21.4 3.02L21.28 2.68C20.84 1.38 19.78 0.39 18.51 0.07C18.08 -0.03 16.98 -0.03 16.55 0.07ZM17.94 1.74C18.62 1.88 19.21 2.34 19.52 2.97C19.74 3.42 19.79 4.08 19.65 4.53C19.21 5.9 17.63 6.52 16.42 5.81C16.15 5.65 15.71 5.18 15.56 4.9C14.92 3.64 15.66 2.09 17.06 1.75C17.41 1.67 17.6 1.66 17.94 1.74Z" fill="#000000" fill-opacity="1.000000" fill-rule="nonzero"/>
	<path id="Vector" d="M8.7 9.61C7.92 9.78 7.27 10.13 6.7 10.69C6.23 11.16 5.95 11.6 5.75 12.19L5.6 12.62L3.05 12.65C0.71 12.67 0.49 12.68 0.36 12.77C-0.12 13.08 -0.12 13.9 0.36 14.21C0.49 14.3 0.71 14.31 3.05 14.33L5.6 14.36L5.69 14.65C6.02 15.69 6.74 16.54 7.73 17.02C8.36 17.33 8.73 17.42 9.5 17.42C10.26 17.42 10.67 17.31 11.35 16.96C12.24 16.5 13.03 15.52 13.29 14.56L13.35 14.33L19.9 14.33C26.34 14.33 26.46 14.33 26.62 14.23C26.88 14.07 27 13.83 27 13.49C27 13.15 26.88 12.91 26.62 12.75C26.46 12.65 26.34 12.65 19.9 12.65L13.35 12.65L13.29 12.42C13.21 12.11 12.91 11.48 12.73 11.24C12.19 10.48 11.42 9.94 10.56 9.69C10.1 9.55 9.17 9.51 8.7 9.61ZM10.07 11.38C10.51 11.51 10.81 11.7 11.09 12.01C11.87 12.88 11.87 14.1 11.09 14.97C10.81 15.28 10.51 15.47 10.07 15.6C9.06 15.92 7.96 15.4 7.47 14.39C7.32 14.07 7.31 14 7.31 13.49C7.31 12.98 7.32 12.91 7.47 12.59C7.96 11.57 9.05 11.06 10.07 11.38Z" fill="#000000" fill-opacity="1.000000" fill-rule="nonzero"/>
	<path id="Vector" d="M16.69 19.21C15.29 19.54 14.17 20.55 13.76 21.87L13.67 22.16L7.11 22.19C0.55 22.22 0.54 22.22 0.39 22.33C-0.16 22.73 -0.13 23.57 0.44 23.85C0.61 23.93 1.21 23.93 7.14 23.93L13.65 23.93L13.79 24.34C14.21 25.6 15.3 26.61 16.58 26.91C17.03 27.02 18.06 27.02 18.51 26.9C19.79 26.59 20.93 25.51 21.31 24.25L21.39 23.96L23.95 23.93C26.32 23.9 26.51 23.9 26.64 23.8C27.15 23.47 27.13 22.71 26.62 22.33C26.47 22.22 26.41 22.22 23.93 22.2L21.39 22.19L21.27 21.81C21.1 21.24 20.81 20.8 20.31 20.29C19.78 19.78 19.44 19.55 18.79 19.33C18.39 19.19 18.24 19.16 17.67 19.15C17.23 19.14 16.9 19.16 16.69 19.21ZM18.42 21.07C19.01 21.35 19.45 21.84 19.65 22.45C19.71 22.65 19.73 22.85 19.71 23.19C19.7 23.58 19.67 23.71 19.51 24.02C19.19 24.67 18.6 25.12 17.86 25.25C17.21 25.38 16.49 25.13 15.98 24.62C15.14 23.77 15.11 22.47 15.91 21.61C16.41 21.07 16.9 20.86 17.62 20.89C17.99 20.9 18.13 20.93 18.42 21.07Z" fill="#000000" fill-opacity="1.000000" fill-rule="nonzero"/>
</svg>
