<svg width="18.000000" height="18.000000" viewBox="0 0 18 18" fill="none" xmlns="http://www.w3.org/2000/svg" xmlns:xlink="http://www.w3.org/1999/xlink">
	<desc>
			Created with Pixso.
	</desc>
	<defs/>
	<path id="Vector" d="M7.86 0.03C5.73 0.32 3.89 1.25 2.41 2.82C1.14 4.16 0.33 5.85 0.04 7.74C-0.02 8.17 -0.02 9.81 0.05 10.24C0.35 12.26 1.2 13.94 2.62 15.36C4.08 16.82 5.82 17.68 7.9 17.95C8.45 18.02 9.84 18 10.36 17.91C12.28 17.59 13.87 16.81 15.23 15.5C16.77 14.03 17.72 12.1 17.97 9.94C18.03 9.4 17.99 8.07 17.9 7.53C17.45 4.97 16.07 2.85 13.88 1.41C12.86 0.73 11.69 0.29 10.34 0.06C9.89 -0.01 8.35 -0.03 7.86 0.03ZM11.23 5.33C11.45 5.4 11.65 5.51 11.91 5.7L12.05 5.8L12.31 5.72C12.45 5.68 12.69 5.58 12.85 5.5C13.16 5.35 13.25 5.34 13.25 5.48C13.25 5.59 13.09 5.9 12.94 6.11L12.82 6.28L12.92 6.26C12.97 6.25 13.08 6.21 13.17 6.17C13.36 6.09 13.45 6.09 13.48 6.16C13.52 6.26 13.38 6.46 12.99 6.85L12.62 7.23L12.6 7.58C12.51 8.79 12.16 9.76 11.48 10.68C10.32 12.25 8.31 13.02 6.3 12.67C5.87 12.59 5.2 12.37 4.82 12.16C4.54 12.02 4.5 11.99 4.49 11.9C4.48 11.84 4.49 11.78 4.52 11.76C4.53 11.74 4.77 11.71 5.04 11.7C5.39 11.68 5.61 11.65 5.84 11.58C6.17 11.48 6.74 11.22 6.76 11.15C6.77 11.13 6.72 11.1 6.66 11.09C6.48 11.06 6.14 10.88 5.94 10.72C5.6 10.45 5.23 9.83 5.33 9.7C5.37 9.67 5.42 9.66 5.55 9.67C5.64 9.68 5.71 9.68 5.71 9.68C5.71 9.67 5.64 9.62 5.56 9.58C5.37 9.46 5.02 9.09 4.9 8.86C4.79 8.66 4.66 8.2 4.66 8C4.66 7.83 4.73 7.77 4.86 7.83C4.92 7.85 5.02 7.89 5.09 7.92L5.23 7.97L5.11 7.82C4.71 7.34 4.59 6.63 4.78 6.01C4.88 5.7 4.95 5.58 5.04 5.58C5.08 5.58 5.2 5.68 5.31 5.81C6.09 6.7 7.25 7.29 8.51 7.46L8.67 7.48L8.67 7.24C8.67 6.24 9.33 5.43 10.27 5.26C10.53 5.21 10.99 5.25 11.23 5.33Z" fill="#00A6DE" fill-opacity="1.000000" fill-rule="nonzero"/>
</svg>
