<svg width="20.000000" height="19.000000" viewBox="0 0 20 19" fill="none" xmlns="http://www.w3.org/2000/svg" xmlns:xlink="http://www.w3.org/1999/xlink">
	<desc>
			Created with Pixso.
	</desc>
	<defs/>
	<path id="Vector" d="M7.57 0.02C7.01 0.08 6.43 0.26 5.9 0.54C4.17 1.44 3.08 3.34 3.08 5.43L3.08 5.65L2.94 5.65C2.74 5.65 2.28 5.73 2.03 5.81C0.84 6.18 -0.13 7.18 -0.51 8.42C-0.65 8.88 -0.69 9.12 -0.71 9.61C-0.75 10.79 -0.38 11.8 0.4 12.64C0.67 12.93 1.08 13.28 1.16 13.28C1.17 13.28 1.18 13.23 1.18 13.18C1.18 13.06 1.25 12.81 1.33 12.64C1.47 12.33 1.78 12.03 2.07 11.92L2.22 11.86L2.17 11.74C2.15 11.67 2.13 11.51 2.12 11.37C2.11 11.09 2.15 10.86 2.27 10.6C2.37 10.38 2.69 10.02 2.89 9.91C3.2 9.76 3.21 9.75 4.78 9.75L6.23 9.75L6.14 9.56C6.04 9.35 5.97 9.04 5.97 8.84C5.97 8.5 6.19 7.9 6.46 7.51C7.39 6.18 9.02 5.77 10.38 6.52C11.72 7.27 12.38 8.98 11.91 10.53C11.79 10.93 11.54 11.41 11.31 11.68L11.2 11.8L12.16 11.81C13.01 11.82 13.14 11.83 13.38 11.89C14.08 12.05 14.69 12.41 15.2 12.94C15.4 13.14 15.64 13.45 15.77 13.65C15.79 13.68 16.32 13.46 16.59 13.32C17.15 13.01 17.66 12.59 18.05 12.11C19.68 10.1 19.63 7.12 17.93 5.19C17.24 4.42 16.41 3.92 15.43 3.69C15.13 3.62 15.04 3.62 14.51 3.62C13.87 3.61 13.58 3.66 13.1 3.82C12.98 3.86 12.87 3.88 12.86 3.87C12.85 3.86 12.81 3.75 12.78 3.64C12.62 3.12 12.34 2.53 12.01 2.08C10.96 0.62 9.29 -0.16 7.57 0.02Z" fill="#000000" fill-opacity="1.000000" fill-rule="nonzero"/>
	<path id="Vector" d="M8.69 7.21C8.13 7.29 7.56 7.66 7.23 8.15C6.95 8.58 6.88 8.91 7.03 9.14C7.16 9.33 7.4 9.4 7.61 9.29C7.74 9.23 7.75 9.21 7.87 8.96C8.26 8.13 9.21 7.95 9.8 8.59C10.42 9.26 10.2 10.34 9.36 10.71L9.21 10.78L6.29 10.79L3.36 10.81L3.27 10.88C3.16 10.96 3.08 11.14 3.08 11.29C3.08 11.46 3.17 11.64 3.29 11.72L3.39 11.79L6.33 11.79L9.27 11.79L9.49 11.73C9.89 11.61 10.22 11.4 10.52 11.06C10.73 10.81 10.88 10.54 10.97 10.24C11.41 8.85 10.57 7.41 9.22 7.21C8.99 7.18 8.94 7.18 8.69 7.21Z" fill="#000000" fill-opacity="1.000000" fill-rule="nonzero"/>
	<path id="Vector" d="M2.42 12.88C2.22 12.94 2.09 13.23 2.14 13.48C2.17 13.62 2.23 13.7 2.34 13.78C2.42 13.84 2.55 13.84 7.68 13.85C12.63 13.87 12.94 13.87 13.09 13.92C13.73 14.13 14.2 14.62 14.41 15.3C14.5 15.56 14.51 16.1 14.46 16.38C14.33 16.97 13.96 17.47 13.44 17.74C13.13 17.9 12.94 17.96 12.61 17.98C12.02 18.01 11.47 17.74 11.13 17.25C11.07 17.16 10.95 16.93 10.87 16.76C10.71 16.38 10.65 16.33 10.42 16.32C10.29 16.31 10.23 16.32 10.15 16.37C9.88 16.54 9.85 16.8 10.05 17.24C10.71 18.75 12.23 19.38 13.67 18.74C14.28 18.46 14.84 17.9 15.13 17.28C15.36 16.78 15.44 16.36 15.42 15.79C15.39 14.99 15.12 14.33 14.6 13.76C14.13 13.26 13.58 12.96 12.91 12.87C12.63 12.83 2.54 12.84 2.42 12.88Z" fill="#000000" fill-opacity="1.000000" fill-rule="nonzero"/>
	<path id="Vector" d="M1.51 14.92C1.29 14.98 1.17 15.17 1.19 15.45C1.2 15.63 1.25 15.73 1.38 15.83C1.45 15.89 1.48 15.89 3.79 15.91L6.14 15.92L6.31 16C6.66 16.18 6.88 16.56 6.88 16.97C6.88 17.16 6.87 17.21 6.78 17.4C6.62 17.75 6.34 17.95 5.99 17.98C5.59 18.01 5.3 17.82 5.04 17.38C4.87 17.08 4.41 17.12 4.25 17.44C4.13 17.7 4.24 17.99 4.6 18.39C4.8 18.6 4.87 18.66 5.08 18.77C5.22 18.85 5.42 18.92 5.53 18.95C6.44 19.17 7.4 18.58 7.71 17.61C7.81 17.29 7.84 16.84 7.77 16.5C7.65 15.91 7.27 15.4 6.75 15.13C6.32 14.9 6.47 14.91 3.89 14.91C2.63 14.9 1.55 14.91 1.51 14.92Z" fill="#000000" fill-opacity="1.000000" fill-rule="nonzero"/>
</svg>
