<svg width="235" height="65" viewBox="0 0 235 65" fill="none" xmlns="http://www.w3.org/2000/svg">
<path fill-rule="evenodd" clip-rule="evenodd" d="M0 29.6478L2.35 33.183C4.7 36.7182 9.20417 43.7887 13.9042 48.5023C18.4083 53.2159 23.1083 55.5727 27.6125 54.3943C32.3125 53.2159 36.8167 48.5023 41.5167 43.7887C46.0208 39.075 50.7208 34.3614 55.225 29.6478C59.925 24.9341 64.4292 20.2205 69.1292 14.3284C73.6333 8.4364 78.3333 1.36595 83.0333 0.187544C87.5375 -0.990865 92.2375 3.72277 96.7417 4.90118C101.442 6.07959 105.946 3.72277 110.646 3.72277C115.15 3.72277 119.85 6.07959 124.354 7.25799C129.054 8.4364 133.558 8.4364 138.258 11.9716C142.762 15.5069 147.463 22.5773 151.967 29.6478C156.667 36.7182 161.367 43.7887 165.871 43.7887C170.571 43.7887 175.075 36.7182 179.775 35.5398C184.279 34.3614 188.979 39.075 193.483 41.4318C198.183 43.7887 202.688 43.7887 207.388 37.8966C211.892 32.0046 216.592 20.2205 221.096 20.2205C225.796 20.2205 230.3 32.0046 232.65 37.8966L235 43.7887V65H232.65C230.3 65 225.796 65 221.096 65C216.592 65 211.892 65 207.388 65C202.688 65 198.183 65 193.483 65C188.979 65 184.279 65 179.775 65C175.075 65 170.571 65 165.871 65C161.367 65 156.667 65 151.967 65C147.463 65 142.762 65 138.258 65C133.558 65 129.054 65 124.354 65C119.85 65 115.15 65 110.646 65C105.946 65 101.442 65 96.7417 65C92.2375 65 87.5375 65 83.0333 65C78.3333 65 73.6333 65 69.1292 65C64.4292 65 59.925 65 55.225 65C50.7208 65 46.0208 65 41.5167 65C36.8167 65 32.3125 65 27.6125 65C23.1083 65 18.4083 65 13.9042 65C9.20417 65 4.7 65 2.35 65C1.05213 65 0 63.9479 0 62.65V29.6478Z" fill="url(#paint0_linear_820_368)"/>
<defs>
<linearGradient id="paint0_linear_820_368" x1="117.5" y1="3.90582e-06" x2="45" y2="65" gradientUnits="userSpaceOnUse">
<stop stop-color="#88A2FF"/>
<stop offset="1" stop-color="#5A70C0"/>
</linearGradient>
</defs>
</svg>
