<svg width="12" height="11" viewBox="0 0 12 11" fill="none" xmlns="http://www.w3.org/2000/svg">
<path d="M10.2872 1.16146L4.52981 8.7425C4.49111 8.79368 4.4451 8.83428 4.39445 8.86199C4.34379 8.8897 4.28948 8.90396 4.23463 8.90396C4.17978 8.90396 4.12547 8.8897 4.07481 8.86199C4.02416 8.83428 3.97816 8.79368 3.93945 8.7425L1.71298 5.80785C1.67427 5.75668 1.62826 5.71607 1.57761 5.68836C1.52695 5.66066 1.47264 5.64639 1.41779 5.64639C1.36294 5.64639 1.30863 5.66066 1.25798 5.68836C1.20732 5.71607 1.16132 5.75668 1.12261 5.80785C1.08375 5.85882 1.05291 5.9194 1.03187 5.98611C1.01083 6.05281 1 6.12433 1 6.19656C1 6.26879 1.01083 6.34031 1.03187 6.40701C1.05291 6.47372 1.08375 6.53429 1.12261 6.58527L3.34992 9.51772C3.58488 9.82655 3.90328 10 4.23526 10C4.56723 10 4.88564 9.82655 5.1206 9.51772L10.8776 1.93833C10.9164 1.88736 10.9472 1.82682 10.9682 1.76017C10.9892 1.69351 11 1.62206 11 1.54989C11 1.47773 10.9892 1.40627 10.9682 1.33962C10.9472 1.27296 10.9164 1.21242 10.8776 1.16146C10.8389 1.11028 10.7929 1.06968 10.7422 1.04197C10.6916 1.01426 10.6373 1 10.5824 1C10.5276 1 10.4733 1.01426 10.4226 1.04197C10.3719 1.06968 10.3259 1.11028 10.2872 1.16146Z" fill="white" stroke="white"/>
</svg>
