<svg width="17.000000" height="16.000000" viewBox="0 0 17 16" fill="none" xmlns="http://www.w3.org/2000/svg" xmlns:xlink="http://www.w3.org/1999/xlink">
	<desc>
			Created with Pixso.
	</desc>
	<defs/>
	<path id="Vector" d="M11.45 0.05C10.89 0.17 10.4 0.39 9.95 0.72C9.61 0.97 6.83 3.74 6.75 3.91C6.63 4.14 6.69 4.47 6.86 4.62C7.04 4.77 7.34 4.82 7.54 4.72C7.59 4.69 8.31 4 9.14 3.17C10.46 1.86 10.67 1.66 10.89 1.54C11.85 0.98 13.04 1.07 13.87 1.77C14.27 2.1 14.59 2.6 14.74 3.11C14.82 3.41 14.82 4.14 14.74 4.42C14.65 4.72 14.49 5.06 14.33 5.28C14.12 5.58 10.37 9.3 10.13 9.45C9.3 9.98 8.24 10 7.4 9.51C7.28 9.43 7.08 9.29 6.97 9.2C6.86 9.1 6.75 9.01 6.72 8.99C6.55 8.9 6.26 8.93 6.08 9.06C5.95 9.15 5.87 9.34 5.87 9.54C5.87 9.81 5.98 9.96 6.47 10.33C6.91 10.66 7.46 10.9 8.04 11.01C8.47 11.09 9.25 11.06 9.66 10.95C10.24 10.8 10.73 10.54 11.18 10.17C11.55 9.85 15.09 6.28 15.27 6.04C15.6 5.59 15.85 5.02 15.95 4.44C16.03 4.02 16 3.24 15.9 2.83C15.54 1.46 14.53 0.45 13.16 0.09C12.9 0.02 12.78 0.01 12.3 0C11.83 -0.01 11.69 0 11.45 0.05Z" fill="#000000" fill-opacity="1.000000" fill-rule="nonzero"/>
	<path id="Vector" d="M6.58 5.15C6 5.22 5.37 5.47 4.88 5.81C4.7 5.93 4.15 6.45 2.88 7.72C1.91 8.69 1.02 9.59 0.9 9.73C0.51 10.19 0.25 10.68 0.1 11.27C-0.01 11.67 -0.04 12.46 0.04 12.88C0.29 14.24 1.21 15.32 2.49 15.79C3.27 16.06 4.28 16.07 5.07 15.79C5.37 15.68 5.79 15.46 6.05 15.26C6.38 15.02 8.77 12.63 8.85 12.47C8.93 12.29 8.91 12.04 8.8 11.86C8.65 11.65 8.33 11.56 8.07 11.66C7.99 11.7 7.54 12.12 6.67 12.99C5.82 13.84 5.32 14.31 5.19 14.39C4.15 15.06 2.76 14.9 1.91 14.02C1.07 13.14 0.94 11.82 1.6 10.8C1.75 10.56 5.25 7.03 5.54 6.82C6.08 6.43 6.71 6.27 7.36 6.34C7.88 6.39 8.35 6.6 8.79 6.97C9.08 7.21 9.13 7.24 9.35 7.24C9.75 7.24 10.03 6.85 9.91 6.47C9.79 6.13 9 5.56 8.34 5.33C7.83 5.16 7.08 5.08 6.58 5.15Z" fill="#000000" fill-opacity="1.000000" fill-rule="nonzero"/>
</svg>
