<svg width="27.000000" height="30.000000" viewBox="0 0 27 30" fill="none" xmlns="http://www.w3.org/2000/svg" xmlns:xlink="http://www.w3.org/1999/xlink">
	<desc>
			Created with Pixso.
	</desc>
	<defs/>
	<path id="Vector" d="M5.3 0.14C5.14 0.22 4.92 0.38 4.82 0.51C4.53 0.85 4.45 1.19 4.45 2.16L4.45 3L3.47 3C2.36 3 2.08 3.05 1.48 3.39C0.81 3.76 0.2 4.58 0.04 5.31C0 5.52 -0.01 8.93 0 16.67L0.01 27.73L0.15 28.07C0.51 28.97 1.24 29.63 2.16 29.9C2.44 29.98 3.58 29.99 13.48 29.99C25.55 29.99 24.7 30.02 25.42 29.66C25.82 29.45 26.36 28.92 26.6 28.49C27.01 27.75 26.98 28.69 26.98 16.5C26.98 4.3 27.01 5.24 26.6 4.5C26.36 4.08 25.82 3.54 25.42 3.33C24.86 3.05 24.56 3 23.5 3L22.51 3L22.51 2.12C22.51 1.15 22.46 0.91 22.15 0.52C21.6 -0.17 20.38 -0.18 19.82 0.51C19.53 0.85 19.45 1.19 19.45 2.16L19.45 3L13.48 3L7.51 3L7.51 2.12C7.51 1.15 7.46 0.91 7.15 0.52C6.75 0.01 5.93 -0.15 5.3 0.14ZM23.97 18.16C23.95 25.75 23.95 25.79 23.83 26.05C23.67 26.4 23.38 26.69 23.04 26.84L22.78 26.97L13.48 26.97L4.19 26.97L3.93 26.84C3.58 26.69 3.29 26.4 3.14 26.05C3.01 25.79 3.01 25.75 3 18.16L2.98 10.53L13.48 10.53L23.99 10.53L23.97 18.16Z" fill="#88A2FF" fill-opacity="1.000000" fill-rule="nonzero"/>
	<path id="Vector" d="M18.19 14.05C18.03 14.13 16.88 15.24 14.66 17.46L11.37 20.76L10.07 19.47C8.85 18.26 8.76 18.18 8.47 18.11C7.51 17.89 6.73 18.85 7.16 19.73C7.23 19.88 7.87 20.56 8.91 21.6C10.5 23.17 10.55 23.23 10.89 23.32C11.31 23.44 11.69 23.41 12.05 23.23C12.37 23.07 19.44 16.04 19.66 15.66C19.85 15.36 19.86 14.88 19.72 14.56C19.46 14.02 18.75 13.79 18.19 14.05Z" fill="#88A2FF" fill-opacity="1.000000" fill-rule="nonzero"/>
</svg>
