<svg width="20.000000" height="22.000000" viewBox="0 0 20 22" fill="none" xmlns="http://www.w3.org/2000/svg" xmlns:xlink="http://www.w3.org/1999/xlink">
	<desc>
			Created with Pixso.
	</desc>
	<defs/>
	<path id="Vector" d="M16.62 -0.63L16.39 -0.41L16.39 0.8L16.39 2.01L15.55 2.01C15.09 2.01 14.66 2.05 14.58 2.08C14.25 2.26 14.26 2.11 14.26 8.43C14.26 14.75 14.25 14.6 14.58 14.78C14.66 14.82 15.09 14.85 15.55 14.85L16.39 14.85L16.39 16.72C16.39 18.71 16.42 18.89 16.72 19.06C16.89 19.15 17.37 19.15 17.53 19.06C17.83 18.89 17.86 18.71 17.86 16.72L17.86 14.85L18.7 14.85C19.16 14.85 19.59 14.82 19.67 14.78C20 14.6 20 14.75 20 8.43C20 2.11 20 2.26 19.67 2.08C19.59 2.05 19.16 2.01 18.7 2.01L17.86 2.01L17.86 0.8L17.86 -0.41L17.63 -0.63C17.45 -0.82 17.35 -0.86 17.13 -0.86C16.9 -0.86 16.81 -0.82 16.62 -0.63Z" fill="#000000" fill-opacity="1.000000" fill-rule="nonzero"/>
	<path id="Vector" d="M2.6 2.73C2.54 2.75 2.42 2.84 2.32 2.94C2.13 3.1 2.13 3.12 2.13 3.96L2.13 4.81L1.27 4.83C0.41 4.85 0.4 4.85 0.2 5.05L0 5.25L0 11.26C0 15.25 0.01 17.31 0.06 17.4C0.2 17.65 0.48 17.72 1.33 17.72L2.13 17.72L2.13 19.3L2.13 20.88L2.32 21.07C2.49 21.23 2.58 21.27 2.84 21.27C3.12 21.27 3.2 21.23 3.37 21.06L3.56 20.86L3.58 19.29L3.6 17.72L4.42 17.72C5.31 17.72 5.44 17.68 5.63 17.32C5.78 17.03 5.78 5.52 5.63 5.22C5.46 4.89 5.23 4.82 4.36 4.82L3.6 4.82L3.6 4.05C3.6 3.49 3.57 3.22 3.5 3.08C3.34 2.77 2.92 2.61 2.6 2.73Z" fill="#000000" fill-opacity="1.000000" fill-rule="nonzero"/>
	<path id="Vector" d="M9.59 4.25C9.31 4.41 9.26 4.65 9.26 6.23L9.26 7.7L8.44 7.7C7.53 7.7 7.36 7.76 7.2 8.14C7.15 8.28 7.13 9.71 7.14 13.52L7.16 18.72L7.36 18.92L7.56 19.13L8.41 19.13L9.26 19.13L9.26 20.26C9.26 21.49 9.31 21.68 9.61 21.89C9.91 22.1 10.5 21.97 10.66 21.67C10.71 21.59 10.73 21.03 10.73 20.34L10.73 19.13L11.61 19.13L12.48 19.13L12.67 18.93L12.87 18.74L12.87 13.44C12.87 9.94 12.85 8.11 12.8 8.02C12.66 7.77 12.39 7.7 11.53 7.7L10.73 7.7L10.73 6.12L10.73 4.54L10.54 4.35C10.38 4.19 10.29 4.15 10.05 4.15C9.89 4.16 9.68 4.2 9.59 4.25Z" fill="#000000" fill-opacity="1.000000" fill-rule="nonzero"/>
</svg>
