<svg width="20.000000" height="20.000000" viewBox="0 0 20 20" fill="none" xmlns="http://www.w3.org/2000/svg" xmlns:xlink="http://www.w3.org/1999/xlink">
	<desc>
			Created with Pixso.
	</desc>
	<defs/>
	<path id="Vector" d="M7.67 0.03C6.84 0.15 5.94 0.56 5.22 1.15C4.82 1.48 4.35 2.05 4.11 2.48L4.02 2.64L3.8 2.58C3.67 2.55 3.39 2.52 3.15 2.51C1.45 2.41 -0.08 3.52 -0.61 5.22C-0.7 5.54 -0.71 5.61 -0.71 6.29L-0.71 7.01L-0.57 7.44C-0.39 7.96 -0.19 8.33 0.14 8.72C0.57 9.23 1.14 9.63 1.77 9.85C2.29 10.03 2.52 10.05 3.92 10.05C5.04 10.04 5.2 10.05 5.2 10.1C5.2 10.2 5.35 10.63 5.48 10.88C5.86 11.64 6.43 12.21 7.2 12.59C7.98 12.97 7.77 12.95 11.36 12.97C14.62 12.98 14.88 12.97 15.5 12.82C17.11 12.41 18.46 11.16 18.99 9.57C19.2 8.93 19.26 8.53 19.23 7.77C19.21 7.1 19.15 6.75 18.95 6.2C18.36 4.55 16.83 3.29 15.05 2.99C14.68 2.93 13.71 2.94 13.36 3.01L13.08 3.07L12.92 2.75C12.58 2.07 12.04 1.42 11.44 0.97C10.85 0.53 10 0.17 9.25 0.05C8.86 -0.02 8.06 -0.02 7.67 0.03ZM9.52 0.98C10.65 1.3 11.57 2.04 12.11 3.06L12.25 3.33L11.97 3.47C11.25 3.83 10.55 4.46 10.12 5.1C9.99 5.3 9.88 5.49 9.87 5.51C9.86 5.55 9.8 5.55 9.62 5.51C8.73 5.34 7.82 5.47 7.04 5.9C5.93 6.49 5.22 7.6 5.09 8.9L5.07 9.18L3.85 9.18C2.45 9.18 2.27 9.15 1.68 8.86C1.41 8.73 1.28 8.63 0.98 8.32C0.68 8.02 0.58 7.89 0.44 7.62C-0.02 6.69 0.01 5.65 0.52 4.79C0.92 4.1 1.59 3.62 2.38 3.43C2.83 3.32 3.4 3.34 3.85 3.49C4.4 3.67 4.47 3.64 4.77 3.08C5.27 2.14 6.16 1.38 7.15 1.05C7.66 0.88 7.87 0.85 8.53 0.86C9.06 0.88 9.22 0.9 9.52 0.98ZM14.87 3.84C15.83 3.99 16.59 4.41 17.26 5.1C18 5.89 18.39 6.85 18.39 7.93C18.39 9.57 17.48 11 16 11.71C15.14 12.11 15 12.12 11.36 12.11C7.99 12.09 8.22 12.11 7.54 11.78C7.23 11.62 7.11 11.54 6.82 11.24C6.28 10.7 6 10.09 5.95 9.36C5.86 7.92 6.89 6.62 8.35 6.34C8.82 6.25 9.27 6.28 9.79 6.44C10.04 6.52 10.2 6.51 10.32 6.43C10.36 6.4 10.48 6.21 10.58 6.01C10.92 5.4 11.32 4.94 11.85 4.56C12.73 3.93 13.84 3.67 14.87 3.84Z" fill="#151515" fill-opacity="1.000000" fill-rule="nonzero"/>
	<path id="Vector" d="M9.89 13.83C9.83 13.85 7.69 16.4 7.62 16.53C7.51 16.73 7.62 17.02 7.83 17.1C7.94 17.16 8.03 17.15 8.67 17.05C9.07 16.98 9.39 16.94 9.4 16.94C9.4 16.94 9.1 17.32 8.72 17.76C8.35 18.21 8.04 18.61 8.02 18.66C7.97 18.91 7.99 18.99 8.12 19.12C8.26 19.27 8.48 19.28 8.66 19.15C8.82 19.04 10.85 16.6 10.9 16.46C10.95 16.33 10.92 16.12 10.83 16.02C10.69 15.87 10.56 15.86 9.82 15.99C9.43 16.05 9.11 16.09 9.11 16.09C9.11 16.09 9.4 15.73 9.76 15.29C10.48 14.44 10.49 14.42 10.5 14.27C10.52 14.08 10.5 14.03 10.39 13.91C10.3 13.82 10.24 13.8 10.1 13.8C10.01 13.8 9.91 13.81 9.89 13.83Z" fill="#151515" fill-opacity="1.000000" fill-rule="nonzero"/>
	<path id="Vector" d="M2.71 14.75C2.19 15.27 2.19 15.27 2.19 15.46C2.19 15.61 2.21 15.66 2.3 15.76C2.4 15.85 2.45 15.87 2.6 15.87L2.79 15.87L3.31 15.35C3.83 14.84 3.83 14.83 3.83 14.65C3.83 14.5 3.81 14.45 3.71 14.35C3.61 14.25 3.56 14.23 3.41 14.23C3.22 14.23 3.22 14.23 2.71 14.75Z" fill="#151515" fill-opacity="1.000000" fill-rule="nonzero"/>
	<path id="Vector" d="M6.5 14.3C6.3 14.43 5.55 15.22 5.52 15.34C5.43 15.63 5.62 15.87 5.92 15.87C6.09 15.87 6.11 15.86 6.6 15.4C6.95 15.07 7.12 14.89 7.15 14.79C7.28 14.4 6.86 14.08 6.5 14.3Z" fill="#151515" fill-opacity="1.000000" fill-rule="nonzero"/>
	<path id="Vector" d="M12.7 14.75C12.18 15.27 12.18 15.27 12.18 15.46C12.18 15.61 12.2 15.66 12.29 15.76C12.39 15.85 12.44 15.87 12.6 15.87L12.78 15.87L13.3 15.35C13.82 14.84 13.82 14.83 13.82 14.65C13.82 14.5 13.8 14.45 13.7 14.35C13.6 14.25 13.55 14.23 13.4 14.23C13.22 14.23 13.22 14.23 12.7 14.75Z" fill="#151515" fill-opacity="1.000000" fill-rule="nonzero"/>
	<path id="Vector" d="M16.49 14.3C16.29 14.43 15.54 15.22 15.51 15.34C15.42 15.63 15.62 15.87 15.91 15.87C16.08 15.87 16.1 15.86 16.59 15.4C16.94 15.07 17.11 14.89 17.14 14.79C17.27 14.4 16.85 14.08 16.49 14.3Z" fill="#151515" fill-opacity="1.000000" fill-rule="nonzero"/>
	<path id="Vector" d="M2.45 17.18C2.28 17.26 1.38 18.18 1.35 18.31C1.31 18.49 1.41 18.7 1.58 18.78C1.83 18.9 1.92 18.85 2.48 18.31C2.98 17.8 3.06 17.68 3.02 17.46C3 17.35 2.83 17.16 2.76 17.16C2.74 17.16 2.68 17.16 2.64 17.14C2.6 17.13 2.51 17.15 2.45 17.18Z" fill="#151515" fill-opacity="1.000000" fill-rule="nonzero"/>
	<path id="Vector" d="M5.8 17.15C5.69 17.18 5.65 17.21 5.15 17.74C4.7 18.2 4.69 18.22 4.69 18.39C4.69 18.73 5 18.94 5.29 18.78C5.36 18.74 5.63 18.49 5.87 18.23C6.3 17.77 6.33 17.74 6.33 17.58C6.33 17.38 6.25 17.25 6.07 17.18C5.93 17.12 5.93 17.12 5.8 17.15Z" fill="#151515" fill-opacity="1.000000" fill-rule="nonzero"/>
	<path id="Vector" d="M12.44 17.18C12.37 17.21 12.1 17.45 11.84 17.72C11.45 18.11 11.35 18.23 11.34 18.34C11.29 18.65 11.57 18.9 11.87 18.81C12.04 18.76 12.95 17.86 12.99 17.69C13.09 17.35 12.75 17.03 12.44 17.18Z" fill="#151515" fill-opacity="1.000000" fill-rule="nonzero"/>
	<path id="Vector" d="M15.79 17.15C15.67 17.18 15.61 17.23 15.13 17.74C14.68 18.21 14.68 18.22 14.68 18.41C14.68 18.56 14.7 18.61 14.79 18.7C15.06 18.95 15.2 18.9 15.76 18.33C16.27 17.81 16.31 17.75 16.32 17.55C16.32 17.38 16.23 17.25 16.06 17.18C15.92 17.12 15.92 17.12 15.79 17.15Z" fill="#151515" fill-opacity="1.000000" fill-rule="nonzero"/>
</svg>
