<svg width="25.000000" height="20.999146" viewBox="0 0 25 20.9991" fill="none" xmlns="http://www.w3.org/2000/svg" xmlns:xlink="http://www.w3.org/1999/xlink">
	<desc>
			Created with Pixso.
	</desc>
	<defs/>
	<path id="Vector" d="M9.38428 0.0852356C8.85889 0.277145 8.4751 0.625626 8.21729 1.15088L8.08105 1.42865L8.08105 4.02963L8.08105 6.63062L8.22754 6.93365C8.41943 7.32254 8.80322 7.70638 9.19238 7.89828L9.49512 8.04475L12.9043 8.05991L16.3135 8.07001L18.3335 10.0902L20.3589 12.1104L20.5708 12.1104C20.7173 12.1104 20.8135 12.0801 20.8838 12.0094C20.98 11.9134 20.9849 11.8427 20.9849 9.99423L20.9849 8.07506L22.2881 8.05991L23.5859 8.04475L23.8892 7.89828C24.2778 7.70638 24.6616 7.32254 24.8535 6.93365L25 6.63062L25 4.02963L25 1.42865L24.8535 1.12563C24.6616 0.73674 24.2778 0.352905 23.8892 0.160995L23.5859 0.0145264L16.6162 0.00442505C9.91943 -0.00567627 9.63672 -0.00567627 9.38428 0.0852356ZM23.4595 0.928665C23.7324 1.05492 24.0303 1.36804 24.1211 1.63573C24.1768 1.79228 24.1919 2.29733 24.1919 4.02963C24.1919 6.46396 24.1919 6.46396 23.8687 6.82254C23.5205 7.21143 23.4243 7.23163 21.7778 7.26193C20.4092 7.28719 20.3135 7.29224 20.2476 7.38313C20.1919 7.46394 20.1768 7.78212 20.1768 9.07504L20.1768 10.671L18.4849 8.97908L16.793 7.28719L13.3184 7.26193C9.93457 7.23668 9.84375 7.23163 9.62158 7.13062C9.34863 7.00435 9.05078 6.69122 8.95996 6.42355C8.9043 6.26698 8.88916 5.76195 8.88916 4.02963C8.88916 1.60037 8.88916 1.59532 9.20752 1.24179C9.41455 1.01451 9.59619 0.908463 9.88916 0.847855C10.0054 0.827652 13.0557 0.8125 16.667 0.8125C23.2124 0.822601 23.2324 0.822601 23.4595 0.928665Z" fill="#FFFFFF" fill-opacity="1.000000" fill-rule="nonzero"/>
	<path id="Vector" d="M12.7773 1.70132C12.3584 1.89325 12.0957 2.30739 12.0957 2.76698C12.0957 3.08516 12.2119 3.22151 12.4897 3.22151C12.7471 3.22151 12.833 3.14577 12.939 2.81747C13.0098 2.60031 13.0605 2.5296 13.1714 2.49425C13.3633 2.42354 13.5703 2.5094 13.6309 2.68112C13.7222 2.92859 13.6211 3.08516 13.3076 3.18616C13.1562 3.23666 12.9995 3.31242 12.9692 3.35788C12.9238 3.41849 12.9038 3.68111 12.9038 4.24171C12.9038 4.97403 12.9141 5.04979 13.0049 5.14069C13.0703 5.20634 13.1714 5.2417 13.3076 5.2417C13.6514 5.2417 13.7119 5.13564 13.7119 4.51443C13.7119 4.01949 13.7168 3.98413 13.8179 3.95383C13.9946 3.89828 14.3281 3.56494 14.4238 3.34778C14.5503 3.07506 14.5503 2.55486 14.4238 2.28719C14.3076 2.0397 14.0503 1.78719 13.8027 1.68617C13.54 1.57507 13.0303 1.58517 12.7773 1.70132Z" fill="#FFFFFF" fill-opacity="1.000000" fill-rule="nonzero"/>
	<path id="Vector" d="M16.0098 1.70132C15.5908 1.89325 15.3281 2.30739 15.3281 2.76698C15.3281 3.08516 15.4443 3.22151 15.7222 3.22151C15.9795 3.22151 16.0654 3.14577 16.1714 2.81747C16.2725 2.50435 16.4292 2.40334 16.6768 2.49425C16.8481 2.55486 16.9341 2.76193 16.8633 2.95384C16.8281 3.06496 16.7573 3.11546 16.54 3.18616C16.3887 3.23666 16.2319 3.31242 16.2017 3.35788C16.1562 3.41849 16.1362 3.68111 16.1362 4.24171C16.1362 4.97403 16.1465 5.04979 16.2373 5.14069C16.3027 5.20634 16.4038 5.2417 16.54 5.2417C16.8838 5.2417 16.9443 5.13564 16.9443 4.51443C16.9443 4.01949 16.9492 3.98413 17.0503 3.95383C17.2271 3.89828 17.5605 3.56494 17.6562 3.34778C17.7827 3.07506 17.7827 2.55486 17.6562 2.28719C17.54 2.0397 17.2827 1.78719 17.0352 1.68617C16.7725 1.57507 16.2627 1.58517 16.0098 1.70132Z" fill="#FFFFFF" fill-opacity="1.000000" fill-rule="nonzero"/>
	<path id="Vector" d="M19.2422 1.70132C18.8232 1.89325 18.5605 2.30739 18.5605 2.76698C18.5605 3.08516 18.6768 3.22151 18.9546 3.22151C19.2119 3.22151 19.2979 3.14577 19.4038 2.81747C19.5049 2.50435 19.6616 2.40334 19.9092 2.49425C20.0806 2.55486 20.1665 2.76193 20.0957 2.95384C20.0605 3.06496 19.9897 3.11546 19.7725 3.18616C19.6211 3.23666 19.4644 3.31242 19.4341 3.35788C19.3887 3.41849 19.3687 3.68111 19.3687 4.24171C19.3687 4.97403 19.3789 5.04979 19.4697 5.14069C19.5352 5.20634 19.6362 5.2417 19.7725 5.2417C20.1162 5.2417 20.1768 5.13564 20.1768 4.51443C20.1768 4.01949 20.1816 3.98413 20.2827 3.95383C20.4595 3.89828 20.793 3.56494 20.8887 3.34778C21.0151 3.07506 21.0151 2.55486 20.8887 2.28719C20.7725 2.0397 20.5151 1.78719 20.2676 1.68617C20.0049 1.57507 19.4951 1.58517 19.2422 1.70132Z" fill="#FFFFFF" fill-opacity="1.000000" fill-rule="nonzero"/>
	<path id="Vector" d="M13.0049 5.74678C12.939 5.81244 12.9038 5.91344 12.9038 6.0498C12.9038 6.18617 12.939 6.28717 13.0049 6.35283C13.0703 6.41849 13.1714 6.45384 13.3076 6.45384C13.4443 6.45384 13.5454 6.41849 13.6108 6.35283C13.6768 6.28717 13.7119 6.18617 13.7119 6.0498C13.7119 5.91344 13.6768 5.81244 13.6108 5.74678C13.5454 5.68112 13.4443 5.64577 13.3076 5.64577C13.1714 5.64577 13.0703 5.68112 13.0049 5.74678Z" fill="#FFFFFF" fill-opacity="1.000000" fill-rule="nonzero"/>
	<path id="Vector" d="M16.2373 5.74678C16.1714 5.81244 16.1362 5.91344 16.1362 6.0498C16.1362 6.18617 16.1714 6.28717 16.2373 6.35283C16.3027 6.41849 16.4038 6.45384 16.54 6.45384C16.6768 6.45384 16.7778 6.41849 16.8433 6.35283C16.9092 6.28717 16.9443 6.18617 16.9443 6.0498C16.9443 5.91344 16.9092 5.81244 16.8433 5.74678C16.7778 5.68112 16.6768 5.64577 16.54 5.64577C16.4038 5.64577 16.3027 5.68112 16.2373 5.74678Z" fill="#FFFFFF" fill-opacity="1.000000" fill-rule="nonzero"/>
	<path id="Vector" d="M19.4697 5.74678C19.4038 5.81244 19.3687 5.91344 19.3687 6.0498C19.3687 6.18617 19.4038 6.28717 19.4697 6.35283C19.5352 6.41849 19.6362 6.45384 19.7725 6.45384C19.9092 6.45384 20.0103 6.41849 20.0757 6.35283C20.1416 6.28717 20.1768 6.18617 20.1768 6.0498C20.1768 5.91344 20.1416 5.81244 20.0757 5.74678C20.0103 5.68112 19.9092 5.64577 19.7725 5.64577C19.6362 5.64577 19.5352 5.68112 19.4697 5.74678Z" fill="#FFFFFF" fill-opacity="1.000000" fill-rule="nonzero"/>
	<path id="Vector" d="M1.30322 8.97401C0.777832 9.16592 0.394043 9.5144 0.13623 10.0397L0 10.3174L0 12.9184L0 15.5194L0.146484 15.8224C0.338379 16.2113 0.722168 16.5952 1.11133 16.7871L1.41406 16.9335L2.71729 16.9487L4.01514 16.9638L4.01514 18.883C4.01514 20.7315 4.02002 20.8022 4.11621 20.8981C4.18701 20.9688 4.28271 20.9991 4.4292 20.9991L4.6416 20.9991L6.6665 18.979L8.68701 16.9588L12.0957 16.9487L15.5049 16.9335L15.8081 16.7871C16.1968 16.5952 16.5806 16.2113 16.7725 15.8224L16.9189 15.5194L16.9189 12.9184L16.9189 10.3174L16.7725 10.0144C16.5806 9.62552 16.1968 9.24168 15.8081 9.04977L15.5049 8.90331L8.53516 8.8932C1.83838 8.8831 1.55566 8.8831 1.30322 8.97401ZM15.3784 9.81744C15.6514 9.9437 15.9492 10.2568 16.04 10.5245C16.0957 10.6811 16.1108 11.1861 16.1108 12.9184C16.1108 14.6507 16.0957 15.1558 16.04 15.3123C15.9492 15.58 15.6514 15.8931 15.3784 16.0194C15.1562 16.1204 15.0654 16.1255 11.6816 16.1507L8.20703 16.176L6.51514 17.8679L4.82324 19.5598L4.82324 17.9638C4.82324 16.6709 4.80811 16.3527 4.75244 16.2719C4.68701 16.181 4.59082 16.176 3.22217 16.1507C1.57568 16.1204 1.47998 16.1002 1.13135 15.7113C0.808105 15.3527 0.808105 15.3527 0.808105 12.9184C0.808105 10.4892 0.808105 10.4841 1.12646 10.1306C1.3335 9.90329 1.51514 9.79724 1.80811 9.73663C1.92432 9.71643 4.97461 9.70128 8.58594 9.70128C15.1313 9.71138 15.1514 9.71138 15.3784 9.81744Z" fill="#FFFFFF" fill-opacity="1.000000" fill-rule="nonzero"/>
	<path id="Vector" d="M3.71191 10.9993C3.646 11.0649 3.61084 11.1659 3.61084 11.3023C3.61084 11.4387 3.646 11.5397 3.71191 11.6053C3.81299 11.7063 3.87842 11.7063 9.26758 11.7063C14.6562 11.7063 14.7217 11.7063 14.8228 11.6053C14.8887 11.5397 14.9238 11.4387 14.9238 11.3023C14.9238 11.1659 14.8887 11.0649 14.8228 10.9993C14.7217 10.8983 14.6562 10.8983 9.26758 10.8983C3.87842 10.8983 3.81299 10.8983 3.71191 10.9993Z" fill="#FFFFFF" fill-opacity="1.000000" fill-rule="nonzero"/>
	<path id="Vector" d="M2.09668 12.6154C2.03076 12.681 1.99561 12.782 1.99561 12.9184C1.99561 13.0547 2.03076 13.1557 2.09668 13.2214C2.19775 13.3224 2.26318 13.3224 8.45996 13.3224C14.6572 13.3224 14.7227 13.3224 14.8237 13.2214C14.96 13.0851 14.96 12.7517 14.8237 12.6154C14.7227 12.5143 14.6572 12.5143 8.45996 12.5143C2.26318 12.5143 2.19775 12.5143 2.09668 12.6154Z" fill="#FFFFFF" fill-opacity="1.000000" fill-rule="nonzero"/>
	<path id="Vector" d="M2.09668 14.2315C2.03076 14.2972 1.99561 14.3982 1.99561 14.5345C1.99561 14.6709 2.03076 14.7719 2.09668 14.8376C2.19775 14.9386 2.26318 14.9386 6.84424 14.9386C11.4248 14.9386 11.4902 14.9386 11.5913 14.8376C11.6572 14.7719 11.6924 14.6709 11.6924 14.5345C11.6924 14.3982 11.6572 14.2972 11.5913 14.2315C11.4902 14.1305 11.4248 14.1305 6.84424 14.1305C2.26318 14.1305 2.19775 14.1305 2.09668 14.2315Z" fill="#FFFFFF" fill-opacity="1.000000" fill-rule="nonzero"/>
</svg>
