<svg width="35.000000" height="35.000000" viewBox="0 0 35 35" fill="none" xmlns="http://www.w3.org/2000/svg" xmlns:xlink="http://www.w3.org/1999/xlink">
	<desc>
			Created with Pixso.
	</desc>
	<defs/>
	<path id="Vector" d="M16.4062 3.28125L16.4062 6.5625L17.5 6.5625L18.5938 6.5625L18.5938 3.28125L18.5938 0L17.5 0L16.4062 0L16.4062 3.28125Z" fill="#FFC700" fill-opacity="1.000000" fill-rule="nonzero"/>
	<path id="Vector" d="M5.10645 5.11328C4.70312 5.5166 4.375 5.87891 4.375 5.91309C4.375 5.9541 5.4209 7.02734 6.69922 8.30566L9.02344 10.6299L9.82324 9.82324L10.6299 9.02344L8.30566 6.69922C7.02734 5.4209 5.9541 4.375 5.91309 4.375C5.87207 4.375 5.50977 4.70312 5.10645 5.11328Z" fill="#FFC700" fill-opacity="1.000000" fill-rule="nonzero"/>
	<path id="Vector" d="M26.6943 6.69922L24.3701 9.02344L25.1768 9.82324L25.9766 10.6299L28.3008 8.30566C29.5791 7.02734 30.625 5.9541 30.625 5.91309C30.625 5.82422 29.1758 4.375 29.0869 4.375C29.0459 4.375 27.9727 5.4209 26.6943 6.69922Z" fill="#FFC700" fill-opacity="1.000000" fill-rule="nonzero"/>
	<path id="Vector" d="M15.9004 8.85938C15.2031 8.98926 14.2734 9.29688 13.5488 9.65234C11.9766 10.4248 10.4932 11.8945 9.67285 13.5078C9.03711 14.7451 8.75 15.9961 8.75 17.5C8.75 19.9404 9.57031 21.957 11.2656 23.6729C11.9766 24.3906 12.667 24.8965 13.501 25.3203C14.8066 25.9766 15.9893 26.25 17.5 26.25C19.8994 26.25 21.8955 25.4502 23.5908 23.8096C24.9717 22.4697 25.8262 20.877 26.1475 19.0312C26.2773 18.2656 26.2773 16.7344 26.1475 15.9688C25.9219 14.6973 25.3818 13.4053 24.6367 12.3662C24.1787 11.7373 23.1807 10.7461 22.5518 10.3018C21.5674 9.60449 20.2549 9.06445 19.0312 8.85254C18.2861 8.72266 16.6318 8.72949 15.9004 8.85938ZM18.6279 11.0811C20.9385 11.4707 22.9141 13.1797 23.6934 15.4629C24.0693 16.5703 24.0967 18.1768 23.7549 19.3115C23.1602 21.3281 21.5879 22.9824 19.6191 23.666C18.4912 24.0557 17.1104 24.1172 15.9619 23.8232C14.0957 23.3516 12.5303 22.1074 11.6895 20.4395C11.1973 19.4619 11.0059 18.6348 11.0059 17.5C11.0059 15.6201 11.6826 14.0547 13.0498 12.7695C13.6104 12.2363 13.9521 11.9902 14.5947 11.6758C15.8662 11.04 17.2129 10.8418 18.6279 11.0811Z" fill="#FFC700" fill-opacity="1.000000" fill-rule="nonzero"/>
	<path id="Vector" d="M0 17.5L0 18.5938L3.28125 18.5938L6.5625 18.5938L6.5625 17.5L6.5625 16.4062L3.28125 16.4062L0 16.4062L0 17.5Z" fill="#FFC700" fill-opacity="1.000000" fill-rule="nonzero"/>
	<path id="Vector" d="M28.4375 17.5L28.4375 18.5938L31.7188 18.5938L35 18.5938L35 17.5L35 16.4062L31.7188 16.4062L28.4375 16.4062L28.4375 17.5Z" fill="#FFC700" fill-opacity="1.000000" fill-rule="nonzero"/>
	<path id="Vector" d="M6.67871 26.7148C5.41406 27.9795 4.375 29.0527 4.375 29.0869C4.375 29.1758 5.82422 30.625 5.91309 30.625C5.9541 30.625 7.02734 29.5791 8.30566 28.3008L10.6299 25.9766L9.84375 25.1904C9.41309 24.7598 9.04395 24.4043 9.02344 24.4043C9.00293 24.4043 7.9502 25.4434 6.67871 26.7148Z" fill="#FFC700" fill-opacity="1.000000" fill-rule="nonzero"/>
	<path id="Vector" d="M25.1562 25.1904L24.3701 25.9766L26.6943 28.3008C27.9727 29.5791 29.0459 30.625 29.0869 30.625C29.1758 30.625 30.625 29.1758 30.625 29.0869C30.625 29.0186 26.0449 24.4043 25.9766 24.4043C25.9561 24.4043 25.5869 24.7598 25.1562 25.1904Z" fill="#FFC700" fill-opacity="1.000000" fill-rule="nonzero"/>
	<path id="Vector" d="M16.4062 31.7188L16.4062 35L17.5 35L18.5938 35L18.5938 31.7188L18.5938 28.4375L17.5 28.4375L16.4062 28.4375L16.4062 31.7188Z" fill="#FFC700" fill-opacity="1.000000" fill-rule="nonzero"/>
</svg>
