<svg width="20.000000" height="20.000000" viewBox="0 0 20 20" fill="none" xmlns="http://www.w3.org/2000/svg" xmlns:xlink="http://www.w3.org/1999/xlink">
	<desc>
			Created with Pixso.
	</desc>
	<defs/>
	<path id="Vector" d="M9.52 0C7.02 0.13 4.69 1.17 2.93 2.93C1.49 4.37 0.54 6.17 0.16 8.17C-0.06 9.31 -0.06 10.69 0.16 11.83C0.78 15.11 3 17.88 6.03 19.18C7.35 19.75 8.56 20 9.99 20C11.76 20 13.35 19.58 14.86 18.74C17.46 17.28 19.27 14.76 19.83 11.83C20.05 10.69 20.05 9.31 19.83 8.17C19.45 6.16 18.51 4.38 17.06 2.93C15.63 1.49 13.81 0.54 11.81 0.16C11.16 0.04 10.15 -0.03 9.52 0ZM10.62 1.67C13.55 1.9 16.13 3.62 17.44 6.2C19.08 9.45 18.46 13.35 15.9 15.91C14.58 17.23 12.95 18.03 11.04 18.29C10.54 18.36 9.45 18.36 8.95 18.29C7.92 18.15 7.07 17.88 6.2 17.44C4.6 16.63 3.3 15.31 2.51 13.7C0.92 10.48 1.55 6.63 4.09 4.09C5.81 2.37 8.21 1.48 10.62 1.67Z" fill="#FFFFFF" fill-opacity="1.000000" fill-rule="nonzero"/>
	<path id="Vector" d="M5.97 6.71C5.59 6.79 5.28 7.05 5.11 7.41C4.94 7.77 4.97 8.23 5.19 8.58C5.37 8.86 5.69 9.07 6.04 9.14C6.58 9.23 7.11 8.95 7.35 8.45C7.45 8.25 7.45 8.23 7.45 7.91C7.45 7.59 7.45 7.57 7.36 7.38C7.19 7.03 6.83 6.76 6.45 6.69C6.26 6.65 6.19 6.66 5.97 6.71Z" fill="#FFFFFF" fill-opacity="1.000000" fill-rule="nonzero"/>
	<path id="Vector" d="M13.52 6.69C13.17 6.75 12.8 7.04 12.63 7.38C12.54 7.57 12.53 7.59 12.53 7.91C12.53 8.23 12.54 8.25 12.63 8.45C12.88 8.95 13.41 9.23 13.95 9.14C14.29 9.07 14.62 8.86 14.8 8.58C15.02 8.23 15.05 7.77 14.88 7.41C14.71 7.04 14.39 6.79 14.01 6.71C13.79 6.66 13.73 6.66 13.52 6.69Z" fill="#FFFFFF" fill-opacity="1.000000" fill-rule="nonzero"/>
	<path id="Vector" d="M9.18 11.73C8.08 11.87 7.01 12.3 6.13 12.94C5.79 13.19 5.36 13.57 5.14 13.81C4.89 14.09 4.62 14.42 4.62 14.45C4.62 14.46 4.92 14.68 5.28 14.94L5.94 15.41L6.05 15.28C6.75 14.42 7.54 13.87 8.5 13.56C9.03 13.39 9.32 13.35 10.01 13.35C10.53 13.35 10.67 13.36 10.94 13.42C12.13 13.66 13.12 14.27 13.94 15.28L14.05 15.41L14.71 14.94C15.07 14.68 15.37 14.46 15.37 14.44C15.37 14.43 15.26 14.29 15.13 14.13C14.12 12.92 12.78 12.11 11.26 11.8C10.64 11.68 9.81 11.65 9.18 11.73Z" fill="#FFFFFF" fill-opacity="1.000000" fill-rule="nonzero"/>
</svg>
