<svg width="253" height="66" viewBox="0 0 253 66" fill="none" xmlns="http://www.w3.org/2000/svg">
<path fill-rule="evenodd" clip-rule="evenodd" d="M0 51.8675L6 43.8675C11 34.8675 22 18.8675 34 8.86753C45 -0.132467 56 -3.13247 67 3.86753C78 11.8675 90 27.8675 101 27.8675C112 27.8675 123 11.8675 134 13.8675C145 15.8675 157 37.8675 168 43.8675C179 48.8675 190 39.8675 201 31.8675C213 22.8675 224 15.8675 229 12.8675L233 11.5C236.015 11.8015 238.535 13.9221 239.348 16.8408L253 65.8675H229C224 65.8675 213 65.8675 201 65.8675C190 65.8675 179 65.8675 168 65.8675C157 65.8675 145 65.8675 134 65.8675C123 65.8675 112 65.8675 101 65.8675C90 65.8675 78 65.8675 67 65.8675C56 65.8675 45 65.8675 34 65.8675C22 65.8675 11 65.8675 6 65.8675C2.68629 65.8675 0 63.1812 0 59.8675V51.8675Z" fill="url(#paint0_linear_820_378)"/>
<defs>
<linearGradient id="paint0_linear_820_378" x1="200" y1="16" x2="68" y2="72" gradientUnits="userSpaceOnUse">
<stop stop-color="#5A70C0"/>
<stop offset="1" stop-color="#88A2FF"/>
</linearGradient>
</defs>
</svg>
