<svg width="515.000000" height="281.000000" viewBox="0 0 515 281" fill="none" xmlns="http://www.w3.org/2000/svg" xmlns:xlink="http://www.w3.org/1999/xlink">
	<desc>
			Created with Pixso.
	</desc>
	<defs>
		<linearGradient id="paint_linear_1186_669_0" x1="431.932739" y1="68.015228" x2="146.857208" y2="306.068817" gradientUnits="userSpaceOnUse">
			<stop stop-color="#5A70C0"/>
			<stop offset="1.000000" stop-color="#88A2FF"/>
		</linearGradient>
	</defs>
	<path id="Vector" d="M0 220.48L12.95 186.47C23.75 148.22 47.51 80.2 73.42 37.69C97.18 -0.57 120.94 -13.32 144.69 16.44C168.45 50.44 194.36 118.46 218.12 118.46C241.88 118.46 265.63 50.44 289.39 58.95C313.15 67.45 339.06 160.97 362.82 186.47C386.58 207.73 410.33 169.47 434.09 135.46C460 97.2 483.76 67.45 494.56 54.69L503.2 48.88L503.2 48.88C509.47 50.12 514 55.62 514 62.01L514 280L494.56 280C483.76 280 460 280 434.09 280C410.33 280 386.58 280 362.82 280C339.06 280 313.15 280 289.39 280C265.63 280 241.88 280 218.12 280C194.36 280 168.45 280 144.69 280C120.94 280 97.18 280 73.42 280C47.51 280 23.75 280 12.95 280L8 280C3.58 280 0 276.41 0 272L0 220.48Z" fill="url(#paint_linear_1186_669_0)" fill-opacity="1.000000" fill-rule="evenodd"/>
	<path id="Vector" d="M12.95 186.47C23.75 148.22 47.51 80.2 73.42 37.69C97.18 -0.57 120.94 -13.32 144.69 16.44C168.45 50.44 194.36 118.46 218.12 118.46C241.88 118.46 265.63 50.44 289.39 58.95C313.15 67.45 339.06 160.97 362.82 186.47C386.58 207.73 410.33 169.47 434.09 135.46C460 97.2 483.76 67.45 494.56 54.69L503.2 48.88C509.47 50.12 514 55.62 514 62.01L514 280L494.56 280C483.76 280 460 280 434.09 280C410.33 280 386.58 280 362.82 280C339.06 280 313.15 280 289.39 280C265.63 280 241.88 280 218.12 280C194.36 280 168.45 280 144.69 280C120.94 280 97.18 280 73.42 280C47.51 280 23.75 280 12.95 280L8 280C3.58 280 0 276.41 0 272L0 220.48L12.95 186.47Z" stroke="#000000" stroke-opacity="1.000000" stroke-width="1.000000"/>
</svg>
