<svg width="34.838379" height="35.000000" viewBox="0 0 34.8384 35" fill="none" xmlns="http://www.w3.org/2000/svg" xmlns:xlink="http://www.w3.org/1999/xlink">
	<desc>
			Created with Pixso.
	</desc>
	<defs/>
	<path id="Vector" d="M15.2964 0.105103C10.8286 0.685791 6.89404 2.83765 4.03174 6.2738C3.42334 7.00476 2.61768 8.12512 2.37842 8.58289C2.31006 8.71948 2.47412 8.82202 5.25439 10.4205C6.88037 11.3564 8.22607 12.1284 8.26025 12.1421C8.2876 12.1558 8.36279 12.0737 8.43115 11.9508C8.5542 11.7322 9.29883 10.7347 9.64697 10.325C10.0024 9.91504 11.02 9.0542 11.6006 8.66492C12.9331 7.77673 14.4565 7.20288 16.082 6.96387C16.895 6.84766 18.7534 6.92285 19.5732 7.10046C21.124 7.43518 22.5518 8.07739 23.8018 8.99963C24.5669 9.55981 24.8677 9.6554 25.332 9.50513C25.4893 9.45044 26.1177 8.87659 27.4155 7.56494C29.2261 5.7478 29.2739 5.70007 29.3149 5.37891C29.417 4.70947 29.1919 4.39526 28.0166 3.52075C25.8374 1.90857 23.3853 0.80188 20.9121 0.316772C19.2861 -0.00427246 16.8472 -0.0930176 15.2964 0.105103Z" fill="#FFFFFF" fill-opacity="1.000000" fill-rule="nonzero"/>
	<path id="Vector" d="M2.13232 9.04053C2.03662 9.19763 1.81104 9.64844 1.62695 10.0447C0.868652 11.6637 0.444824 13.0437 0.130859 14.895C-0.046875 15.9265 -0.0400391 19.1373 0.130859 20.1211C0.376465 21.5078 0.574707 22.2661 0.943848 23.2635C1.05273 23.5641 1.20312 23.9808 1.27832 24.1858C1.46289 24.705 2.25537 26.201 2.3374 26.1874C2.4126 26.1737 8.10986 22.9015 8.19189 22.8195C8.22607 22.7922 8.15771 22.5873 8.04834 22.3687C7.24219 20.7837 6.85986 19.2262 6.85986 17.491C6.85986 15.8241 7.31738 13.9523 8.05518 12.5859C8.16455 12.3811 8.22607 12.1967 8.19873 12.1625C8.16455 12.1351 7.49512 11.7457 6.70264 11.288C5.91016 10.8372 4.59863 10.0857 3.78564 9.61426L2.29639 8.75354L2.13232 9.04053Z" fill="#FFFFFF" fill-opacity="1.000000" fill-rule="nonzero"/>
	<path id="Vector" d="M22.0596 27.0209C20.9185 27.6016 19.4839 27.991 18.1997 28.0592L17.4619 28.1002L17.4619 31.5365L17.4619 34.9795L18.0972 34.9795C19.8325 34.9795 22.0664 34.5149 23.9858 33.7499C24.6416 33.4902 26.2061 32.7251 26.2061 32.6636C26.1992 32.5338 22.7905 26.7476 22.7153 26.7407C22.6606 26.7339 22.3667 26.8638 22.0596 27.0209Z" fill="#FFFFFF" fill-opacity="1.000000" fill-rule="nonzero"/>
	<path id="Vector" d="M5.37061 24.5C3.77197 25.4224 2.42627 26.201 2.37842 26.2284C2.31006 26.2626 2.44678 26.5154 2.87744 27.1575C3.66943 28.3462 4.07959 28.8448 5.13135 29.89C7.06494 31.8234 9.19629 33.1692 11.7036 34.0299C13.3564 34.5969 14.8662 34.8907 16.4922 34.959L17.4624 35L17.4624 31.5502L17.4624 28.1002L16.7314 28.0592C14.5181 27.9363 12.3457 27.0414 10.5693 25.5248C9.77686 24.8485 9.18945 24.1653 8.37646 22.9698C8.27393 22.8264 8.25342 22.8331 5.37061 24.5Z" fill="#FFFFFF" fill-opacity="1.000000" fill-rule="nonzero"/>
	<path id="Vector" d="M18.7109 14.6195C18.5742 14.6947 18.3901 14.8518 18.3013 14.9747L18.144 15.2002L18.1235 17.9055L18.103 20.6039L18.2603 20.8362C18.3491 20.9659 18.54 21.1436 18.6904 21.2256L18.9639 21.3827L23.1104 21.3827L27.2573 21.3827L27.0454 21.8405C26.1982 23.7122 24.7432 25.4132 23.083 26.4653L22.6938 26.7112L23.6909 28.4327C24.2378 29.3823 25.0166 30.735 25.4194 31.4386L26.1572 32.7161L26.5537 32.4701C29.3613 30.735 31.6294 28.2893 33.0366 25.4816C33.9521 23.6644 34.4712 21.936 34.7515 19.8114C34.833 19.1488 34.8535 18.6091 34.8262 17.4204C34.7856 15.6853 34.7104 15.2139 34.396 14.8792C34 14.4624 34.4302 14.4829 26.3623 14.4829C19.1758 14.4897 18.957 14.4897 18.7109 14.6195Z" fill="#FFFFFF" fill-opacity="1.000000" fill-rule="nonzero"/>
</svg>
