<svg width="22.800293" height="45.000000" viewBox="0 0 22.8003 45" fill="none" xmlns="http://www.w3.org/2000/svg" xmlns:xlink="http://www.w3.org/1999/xlink">
	<desc>
			Created with Pixso.
	</desc>
	<defs/>
	<path id="Vector" d="M13.625 0.213257C11.4976 0.661621 9.76611 1.54065 8.37695 2.87671C7.04102 4.16895 6.32031 5.41711 5.98633 7.05212C5.87207 7.59717 5.8457 8.40588 5.8457 11.4209L5.8457 15.1129L3.13818 15.1129L0.421875 15.1129L0.210938 15.3414L0 15.5699L0 19.5696L0 23.5692L0.246094 23.7802L0.492188 23.9911L3.08545 23.9911L5.66992 23.9911L5.66992 34.3109L5.66992 44.6396L5.89844 44.8154C6.12695 45 6.21484 45 10.6099 45L15.084 45L15.2954 44.7803L15.5151 44.5692L15.5151 34.3197L15.5151 24.079L18.4858 24.079C21.3516 24.079 21.4658 24.0702 21.6504 23.9032C21.7559 23.8065 21.8613 23.6307 21.8877 23.5253C22.0024 23.0681 22.7935 15.7897 22.7495 15.6578C22.7231 15.5787 22.6177 15.4205 22.521 15.3063L22.3452 15.1129L18.9258 15.1129L15.5063 15.1129L15.5327 12.4495C15.5591 9.54858 15.5854 9.38159 16.104 8.90686C16.6313 8.41467 16.7544 8.39709 19.6641 8.34436C22.3276 8.30042 22.3716 8.30042 22.5649 8.09814L22.7671 7.896L22.7935 4.40625C22.811 2.48999 22.7935 0.784668 22.7671 0.626465C22.7407 0.476929 22.6265 0.265991 22.5298 0.169312C22.3452 0.00231934 22.2222 -0.00646973 18.4683 0.00231934C14.7588 0.00231934 14.5479 0.0111084 13.625 0.213257Z" fill="#FFFFFF" fill-opacity="1.000000" fill-rule="nonzero"/>
</svg>
