<svg width="28.580078" height="35.000000" viewBox="0 0 28.5801 35" fill="none" xmlns="http://www.w3.org/2000/svg" xmlns:xlink="http://www.w3.org/1999/xlink">
	<desc>
			Created with Pixso.
	</desc>
	<defs/>
	<path id="Vector" d="M20.1011 0.164062C18.7271 0.526489 17.5303 1.21021 16.5044 2.22229C15.4722 3.24109 14.8496 4.25989 14.4531 5.58643C14.3027 6.09924 14.2754 6.33179 14.2617 7.14551L14.2549 8.10278L14.5283 8.12329C14.9658 8.16431 15.9917 8.00024 16.5522 7.80188C17.4004 7.5011 18.002 7.09766 18.8364 6.25659C20.5049 4.58813 21.209 3.04968 21.3115 0.868408L21.3525 0L21.0176 0C20.833 0.00683594 20.4229 0.0751953 20.1011 0.164062Z" fill="#FFFFFF" fill-opacity="1.000000" fill-rule="nonzero"/>
	<path id="Vector" d="M19.7251 8.47888C18.877 8.59521 17.708 8.95068 15.7935 9.67554C15.0684 9.9491 14.8633 9.99695 14.46 9.99695C13.9541 9.99011 13.9131 9.97644 11.8271 9.1969C10.4805 8.69092 9.70068 8.52673 8.64795 8.5199C8.16211 8.5199 7.57422 8.55408 7.34863 8.60205C3.45801 9.43628 0.743164 12.568 0.100586 16.9647C-0.015625 17.8058 -0.0361328 19.7477 0.0664062 20.6844C0.53125 24.8008 2.05615 28.5958 4.56543 31.8644C5.70752 33.3481 6.65771 34.2234 7.65625 34.6884C8.20312 34.9482 8.27832 34.9688 8.98975 34.9961C9.87842 35.0234 10.3364 34.9209 12.0322 34.2917C13.4751 33.7584 14.1729 33.6217 15.1777 33.6627C16.0874 33.7037 16.6138 33.8336 17.9199 34.3328C19.082 34.7772 19.6841 34.9277 20.4702 34.9824C21.5098 35.0508 22.4121 34.7772 23.2808 34.1277C24.5664 33.1567 26.5698 30.3873 27.6909 28.0078C28.1084 27.1257 28.5801 25.9222 28.5801 25.7513C28.5801 25.6898 28.3955 25.553 28.1562 25.4299C26.5698 24.6299 25.1611 23.1735 24.5527 21.7101C24.4297 21.4161 24.2446 20.876 24.1489 20.5204C23.9917 19.9186 23.978 19.7408 23.9712 18.4963C23.9712 17.2313 23.9849 17.0809 24.1489 16.4724C24.3472 15.7407 24.6758 15.009 25.0928 14.38C25.4756 13.7987 26.4536 12.8209 27.1304 12.3491L27.6909 11.9525L27.4722 11.6381C26.1938 9.7644 23.6841 8.52673 20.9902 8.4447C20.5181 8.43103 19.9507 8.4447 19.7251 8.47888Z" fill="#FFFFFF" fill-opacity="1.000000" fill-rule="nonzero"/>
</svg>
