<svg width="43.096680" height="35.000000" viewBox="0 0 43.0967 35" fill="none" xmlns="http://www.w3.org/2000/svg" xmlns:xlink="http://www.w3.org/1999/xlink">
	<desc>
			Created with Pixso.
	</desc>
	<defs/>
	<path id="Vector" d="M28.0869 0.112549C25.4004 0.710449 23.2695 2.31067 21.998 4.69397C21.1221 6.32788 20.7852 8.54285 21.105 10.4377L21.1641 10.7578L20.8354 10.7578C20.6504 10.7578 20.0273 10.6989 19.4546 10.6315C13.9805 9.95764 8.96924 7.54907 5.02783 3.69177C4.48047 3.16125 3.82373 2.46228 3.5625 2.15063C3.29297 1.83899 3.04883 1.57788 3.01514 1.57788C2.7959 1.57788 2.08838 3.45605 1.90332 4.51721C1.33057 7.85217 2.61914 11.103 5.33936 13.1832L5.5835 13.3685L5.1709 13.318C4.10156 13.2001 2.92236 12.8549 2.10547 12.4421C1.92041 12.3495 1.75195 12.2737 1.71826 12.2737C1.68457 12.2737 1.68457 12.6106 1.70947 13.0148C1.89502 15.6425 3.1748 17.9838 5.26367 19.5417C6.07227 20.1482 6.88086 20.5608 7.82373 20.8724L8.53125 21.0999L8.04297 21.2009C7.47021 21.3187 5.76904 21.3524 5.20459 21.2598C4.91846 21.2094 4.80029 21.2178 4.80029 21.285C4.80029 21.5293 5.37305 22.7252 5.82812 23.4073C7.26807 25.6055 9.72705 27.113 12.313 27.391L12.8853 27.45L12.5063 27.7446C10.8643 28.9911 8.3291 30.1449 6.02148 30.6754C4.53076 31.0208 2.07178 31.2061 0.741211 31.0797C0.328613 31.0376 0 31.0292 0 31.0629C0 31.0966 0.429688 31.3661 0.95166 31.6692C4.16016 33.5221 7.31006 34.5327 11.1841 34.9369C12.3804 35.0632 16.1445 34.9874 17.2646 34.819C22.1074 34.0695 25.9395 32.4272 29.4009 29.6058C35.1445 24.9318 38.7319 17.3942 38.7407 9.98291L38.7407 8.75342L39.4902 8.1554C40.4419 7.38904 41.9409 5.83093 42.6147 4.90454C42.9009 4.50879 43.1201 4.16345 43.0947 4.13818C43.0776 4.11292 42.7744 4.20557 42.438 4.34033C41.7471 4.61816 40.6104 4.97192 39.9619 5.11511C39.229 5.28357 38.3027 5.43518 38.3784 5.37622C38.4121 5.34253 38.6646 5.15723 38.9258 4.95508C39.5405 4.49194 40.4585 3.52344 40.8711 2.90015C41.2251 2.37805 41.8062 1.18213 41.8989 0.803101C41.9575 0.575684 41.9326 0.584106 40.8291 1.14001C39.7173 1.70422 38.1934 2.26855 36.9551 2.57166L36.3149 2.74011L35.9443 2.36121C35.1191 1.51892 33.4434 0.584106 32.1294 0.230469C31.2114 -0.0137939 28.9629 -0.0811768 28.0869 0.112549Z" fill="#FFFFFF" fill-opacity="1.000000" fill-rule="nonzero"/>
</svg>
